<svg xmlns="http://www.w3.org/2000/svg" xmlns:xlink="http://www.w3.org/1999/xlink" width="500" zoomAndPan="magnify" viewBox="0 0 375 374.999991" height="500" preserveAspectRatio="xMidYMid meet" version="1.0"><path fill="#ffd230" d="M 0 204.207031 C 0.28125 207.117188 0.628906 210.019531 1.042969 212.914062 C 1.460938 215.808594 1.941406 218.691406 2.496094 221.5625 C 3.046875 224.4375 3.664062 227.292969 4.351562 230.136719 C 5.039062 232.976562 5.789062 235.804688 6.609375 238.609375 C 7.429688 241.417969 8.3125 244.203125 9.265625 246.96875 C 10.214844 249.734375 11.230469 252.476562 12.308594 255.195312 C 13.386719 257.914062 14.53125 260.605469 15.734375 263.269531 C 16.941406 265.933594 18.210938 268.566406 19.539062 271.171875 C 20.871094 273.773438 22.257812 276.347656 23.710938 278.886719 C 25.160156 281.425781 26.671875 283.929688 28.238281 286.398438 C 29.808594 288.863281 31.433594 291.292969 33.117188 293.6875 C 34.800781 296.078125 36.539062 298.429688 38.332031 300.738281 C 40.125 303.046875 41.972656 305.3125 43.871094 307.535156 C 45.773438 309.757812 47.722656 311.9375 49.726562 314.066406 C 51.730469 316.199219 53.78125 318.28125 55.882812 320.316406 C 57.984375 322.347656 60.128906 324.332031 62.324219 326.265625 C 64.519531 328.199219 66.757812 330.082031 69.039062 331.90625 C 71.320312 333.734375 73.644531 335.507812 76.011719 337.226562 C 78.378906 338.945312 80.78125 340.609375 83.226562 342.214844 C 85.671875 343.820312 88.152344 345.367188 90.667969 346.855469 C 93.1875 348.34375 95.738281 349.773438 98.320312 351.140625 C 100.90625 352.511719 103.519531 353.816406 106.164062 355.0625 C 108.8125 356.308594 111.484375 357.492188 114.1875 358.613281 C 116.886719 359.730469 119.613281 360.789062 122.367188 361.777344 C 125.117188 362.769531 127.890625 363.695312 130.683594 364.558594 C 133.480469 365.417969 136.292969 366.214844 139.125 366.941406 C 141.957031 367.671875 144.804688 368.332031 147.667969 368.925781 C 150.53125 369.523438 153.40625 370.050781 156.292969 370.507812 C 159.183594 370.96875 162.078125 371.359375 164.984375 371.683594 C 167.890625 372.003906 170.804688 372.257812 173.722656 372.445312 C 176.640625 372.632812 179.5625 372.75 182.484375 372.796875 C 185.410156 372.847656 188.332031 372.824219 191.257812 372.738281 C 194.179688 372.648438 197.097656 372.488281 200.015625 372.261719 C 202.929688 372.039062 205.839844 371.742188 208.738281 371.378906 C 211.640625 371.015625 214.53125 370.585938 217.414062 370.085938 C 220.296875 369.585938 223.164062 369.019531 226.019531 368.382812 C 228.875 367.75 231.710938 367.050781 234.53125 366.28125 C 237.355469 365.511719 240.15625 364.679688 242.9375 363.78125 C 245.722656 362.878906 248.480469 361.914062 251.21875 360.886719 C 253.957031 359.855469 256.667969 358.761719 259.351562 357.605469 C 262.039062 356.449219 264.695312 355.230469 267.324219 353.945312 C 269.953125 352.664062 272.546875 351.320312 275.113281 349.917969 C 277.679688 348.511719 280.210938 347.050781 282.707031 345.527344 C 285.203125 344.003906 287.660156 342.421875 290.082031 340.78125 C 292.503906 339.140625 294.886719 337.445312 297.226562 335.695312 C 299.570312 333.945312 301.867188 332.140625 304.125 330.28125 C 306.382812 328.421875 308.59375 326.507812 310.761719 324.546875 C 312.929688 322.582031 315.046875 320.570312 317.121094 318.503906 C 319.195312 316.441406 321.214844 314.332031 323.1875 312.171875 C 325.160156 310.015625 327.082031 307.808594 328.953125 305.5625 C 330.820312 303.3125 332.636719 301.019531 334.398438 298.6875 C 336.160156 296.351562 337.867188 293.976562 339.515625 291.5625 C 341.164062 289.148438 342.757812 286.695312 344.292969 284.207031 C 345.824219 281.71875 347.300781 279.195312 348.714844 276.636719 C 350.132812 274.074219 351.484375 271.484375 352.78125 268.863281 C 354.074219 266.238281 355.304688 263.589844 356.472656 260.90625 C 357.640625 258.226562 358.746094 255.519531 359.789062 252.789062 C 360.832031 250.054688 361.808594 247.300781 362.71875 244.523438 C 363.632812 241.742188 364.476562 238.945312 365.257812 236.125 C 366.039062 233.308594 366.75 230.472656 367.398438 227.621094 C 368.042969 224.769531 368.625 221.902344 369.136719 219.023438 C 369.648438 216.144531 370.089844 213.253906 370.46875 210.355469 C 370.84375 207.457031 371.152344 204.546875 371.390625 201.632812 C 371.628906 198.71875 371.800781 195.800781 371.902344 192.878906 C 372.003906 189.957031 372.035156 187.03125 372 184.109375 C 371.964844 181.183594 371.859375 178.261719 371.6875 175.34375 C 371.511719 172.425781 371.269531 169.511719 370.960938 166.601562 C 370.652344 163.695312 370.273438 160.796875 369.824219 157.90625 C 369.378906 155.015625 368.863281 152.136719 368.28125 149.273438 C 367.699219 146.40625 367.050781 143.554688 366.335938 140.722656 C 365.617188 137.886719 364.835938 135.070312 363.984375 132.269531 C 363.136719 129.472656 362.222656 126.695312 361.242188 123.941406 C 360.265625 121.183594 359.21875 118.453125 358.113281 115.746094 C 357.003906 113.042969 355.832031 110.363281 354.597656 107.710938 C 353.363281 105.058594 352.070312 102.441406 350.710938 99.847656 C 349.355469 97.257812 347.9375 94.703125 346.457031 92.179688 C 344.980469 89.65625 343.445312 87.167969 341.851562 84.71875 C 340.253906 82.265625 338.605469 79.855469 336.894531 77.480469 C 335.1875 75.105469 333.425781 72.773438 331.605469 70.484375 C 329.789062 68.195312 327.917969 65.945312 325.992188 63.746094 C 324.070312 61.542969 322.09375 59.386719 320.070312 57.277344 C 318.042969 55.167969 315.972656 53.105469 313.847656 51.09375 C 311.726562 49.082031 309.558594 47.121094 307.34375 45.210938 C 305.128906 43.300781 302.871094 41.445312 300.570312 39.640625 C 298.265625 37.835938 295.925781 36.089844 293.539062 34.394531 C 291.15625 32.703125 288.734375 31.066406 286.273438 29.488281 C 283.8125 27.90625 281.316406 26.386719 278.78125 24.925781 C 276.25 23.460938 273.683594 22.0625 271.085938 20.71875 C 268.488281 19.378906 265.859375 18.097656 263.199219 16.882812 C 260.539062 15.664062 257.855469 14.511719 255.140625 13.417969 C 252.425781 12.328125 249.691406 11.300781 246.929688 10.339844 C 244.167969 9.375 241.386719 8.480469 238.582031 7.648438 C 235.777344 6.816406 232.957031 6.050781 230.117188 5.351562 C 227.277344 4.65625 224.421875 4.023438 221.554688 3.460938 C 218.683594 2.894531 215.800781 2.398438 212.910156 1.96875 C 210.015625 1.542969 207.117188 1.179688 204.207031 0.886719 C 203.6875 0.8125 203.167969 0.78125 202.648438 0.796875 C 202.125 0.8125 201.609375 0.875 201.097656 0.984375 C 200.585938 1.089844 200.085938 1.242188 199.601562 1.433594 C 199.117188 1.628906 198.652344 1.867188 198.210938 2.144531 C 197.765625 2.417969 197.351562 2.734375 196.964844 3.082031 C 196.574219 3.433594 196.222656 3.8125 195.898438 4.226562 C 195.578125 4.640625 195.296875 5.078125 195.054688 5.539062 C 194.808594 6 194.609375 6.480469 194.449219 6.980469 C 194.292969 7.476562 194.175781 7.984375 194.109375 8.503906 C 194.039062 9.019531 194.015625 9.539062 194.039062 10.0625 C 194.058594 10.585938 194.128906 11.101562 194.242188 11.609375 C 194.355469 12.121094 194.511719 12.617188 194.714844 13.097656 C 194.914062 13.582031 195.15625 14.042969 195.4375 14.480469 C 195.71875 14.921875 196.039062 15.332031 196.394531 15.71875 C 196.75 16.101562 197.136719 16.449219 197.550781 16.765625 C 197.96875 17.082031 198.410156 17.355469 198.875 17.59375 C 201.109375 18.84375 203.304688 20.15625 205.460938 21.535156 C 207.621094 22.910156 209.738281 24.347656 211.8125 25.847656 C 213.886719 27.347656 215.917969 28.902344 217.902344 30.519531 C 219.890625 32.136719 221.828125 33.808594 223.714844 35.535156 C 225.605469 37.261719 227.441406 39.042969 229.230469 40.875 C 231.015625 42.710938 232.746094 44.59375 234.425781 46.527344 C 236.101562 48.460938 237.722656 50.441406 239.285156 52.46875 C 240.847656 54.496094 242.351562 56.566406 243.796875 58.679688 C 245.242188 60.792969 246.621094 62.945312 247.941406 65.140625 C 249.261719 67.332031 250.515625 69.5625 251.707031 71.828125 C 252.898438 74.09375 254.023438 76.394531 255.082031 78.722656 C 256.140625 81.054688 257.132812 83.414062 258.054688 85.800781 C 258.976562 88.191406 259.828125 90.601562 260.613281 93.039062 C 261.394531 95.476562 262.109375 97.933594 262.75 100.414062 C 263.390625 102.890625 263.960938 105.386719 264.457031 107.898438 C 264.953125 110.40625 265.378906 112.929688 265.730469 115.46875 C 266.082031 118.003906 266.363281 120.546875 266.566406 123.097656 C 266.773438 125.648438 266.902344 128.203125 266.960938 130.765625 C 267.019531 133.324219 267.003906 135.882812 266.914062 138.441406 C 266.824219 141 266.660156 143.550781 266.421875 146.101562 C 266.183594 148.648438 265.875 151.191406 265.492188 153.71875 C 265.105469 156.25 264.648438 158.769531 264.121094 161.273438 C 263.59375 163.777344 262.992188 166.265625 262.320312 168.734375 C 261.644531 171.207031 260.902344 173.65625 260.089844 176.082031 C 259.277344 178.507812 258.394531 180.910156 257.441406 183.285156 C 256.488281 185.664062 255.46875 188.007812 254.378906 190.328125 C 253.292969 192.644531 252.140625 194.925781 250.917969 197.179688 C 249.699219 199.429688 248.417969 201.644531 247.070312 203.820312 C 245.722656 205.996094 244.3125 208.132812 242.84375 210.226562 C 241.371094 212.324219 239.84375 214.375 238.253906 216.382812 C 236.664062 218.390625 235.019531 220.347656 233.320312 222.261719 C 231.617188 224.171875 229.859375 226.035156 228.050781 227.847656 C 226.242188 229.65625 224.382812 231.414062 222.472656 233.117188 C 220.5625 234.820312 218.605469 236.46875 216.597656 238.058594 C 214.59375 239.648438 212.542969 241.183594 210.449219 242.652344 C 208.355469 244.125 206.21875 245.539062 204.042969 246.886719 C 201.871094 248.234375 199.65625 249.523438 197.40625 250.742188 C 195.15625 251.964844 192.875 253.121094 190.558594 254.210938 C 188.242188 255.300781 185.898438 256.324219 183.519531 257.277344 C 181.144531 258.234375 178.746094 259.117188 176.320312 259.933594 C 173.894531 260.75 171.445312 261.496094 168.976562 262.171875 C 166.507812 262.84375 164.019531 263.449219 161.515625 263.980469 C 159.011719 264.511719 156.496094 264.96875 153.964844 265.355469 C 151.433594 265.742188 148.894531 266.054688 146.34375 266.296875 C 143.796875 266.535156 141.242188 266.703125 138.683594 266.792969 C 136.125 266.886719 133.566406 266.90625 131.007812 266.851562 C 128.449219 266.792969 125.894531 266.664062 123.339844 266.464844 C 120.789062 266.261719 118.246094 265.984375 115.710938 265.636719 C 113.175781 265.285156 110.652344 264.863281 108.140625 264.367188 C 105.628906 263.875 103.132812 263.304688 100.652344 262.667969 C 98.175781 262.027344 95.714844 261.320312 93.277344 260.539062 C 90.839844 259.757812 88.425781 258.90625 86.039062 257.988281 C 83.648438 257.066406 81.289062 256.078125 78.957031 255.023438 C 76.625 253.964844 74.324219 252.84375 72.058594 251.65625 C 69.792969 250.464844 67.5625 249.214844 65.367188 247.894531 C 63.171875 246.578125 61.015625 245.199219 58.902344 243.757812 C 56.785156 242.316406 54.714844 240.8125 52.683594 239.25 C 50.65625 237.691406 48.675781 236.070312 46.738281 234.394531 C 44.804688 232.71875 42.917969 230.992188 41.082031 229.207031 C 39.25 227.421875 37.464844 225.585938 35.738281 223.699219 C 34.007812 221.8125 32.332031 219.875 30.714844 217.890625 C 29.097656 215.90625 27.539062 213.878906 26.039062 211.804688 C 24.539062 209.730469 23.097656 207.617188 21.71875 205.457031 C 20.339844 203.300781 19.023438 201.105469 17.773438 198.875 C 17.488281 198.457031 17.171875 198.070312 16.824219 197.707031 C 16.476562 197.34375 16.097656 197.011719 15.695312 196.710938 C 15.289062 196.410156 14.863281 196.144531 14.414062 195.917969 C 13.96875 195.6875 13.503906 195.496094 13.023438 195.34375 C 12.542969 195.191406 12.054688 195.082031 11.554688 195.011719 C 11.058594 194.941406 10.558594 194.910156 10.054688 194.925781 C 9.550781 194.9375 9.050781 194.992188 8.558594 195.089844 C 8.0625 195.183594 7.582031 195.320312 7.109375 195.496094 C 6.609375 195.597656 6.125 195.742188 5.652344 195.925781 C 5.179688 196.113281 4.722656 196.335938 4.289062 196.601562 C 3.855469 196.863281 3.445312 197.160156 3.058594 197.496094 C 2.675781 197.828125 2.324219 198.191406 2.003906 198.585938 C 1.679688 198.980469 1.394531 199.398438 1.144531 199.839844 C 0.894531 200.28125 0.6875 200.742188 0.515625 201.222656 C 0.34375 201.703125 0.214844 202.191406 0.128906 202.691406 C 0.0429688 203.191406 0 203.699219 0 204.207031 Z M 0 204.207031 " fill-opacity="1" fill-rule="nonzero"/></svg>