<svg xmlns="http://www.w3.org/2000/svg" xmlns:xlink="http://www.w3.org/1999/xlink" width="500" zoomAndPan="magnify" viewBox="0 0 375 374.999991" height="500" preserveAspectRatio="xMidYMid meet" version="1.0"><defs><clipPath id="482c496e65"><path d="M 3.671875 0 L 371.171875 0 L 371.171875 368 L 3.671875 368 Z M 3.671875 0 " clip-rule="nonzero"/></clipPath></defs><g clip-path="url(#482c496e65)"><path fill="#bc1823" d="M 371.335938 184.089844 L 369.65625 209.035156 C 361.703125 259.292969 338.429688 299.488281 299.835938 329.621094 C 260.972656 359.730469 215.210938 371.941406 162.550781 366.25 C 112.292969 358.296875 72.09375 335.019531 41.960938 296.425781 C 32.308594 283.953125 24.355469 270.359375 18.105469 255.648438 L 10.222656 232.960938 C 5.894531 217.347656 3.707031 201.058594 3.65625 184.089844 C 4.972656 132.007812 22.917969 88.675781 57.5 54.09375 C 92.085938 19.511719 135.414062 1.5625 187.496094 0.25 C 239.578125 1.5625 282.90625 19.511719 317.492188 54.09375 C 352.074219 88.675781 370.023438 132.007812 371.335938 184.089844 " fill-opacity="1" fill-rule="nonzero"/></g><path fill="#2b2d31" d="M 31.84375 142.476562 C 30.230469 142.476562 28.6875 143.117188 27.546875 144.253906 C 26.410156 145.394531 25.769531 146.941406 25.769531 148.550781 L 25.769531 225.550781 C 25.769531 227.164062 26.410156 228.707031 27.546875 229.847656 C 28.6875 230.984375 30.230469 231.625 31.84375 231.625 L 343.035156 231.625 C 346.386719 231.625 349.109375 228.90625 349.109375 225.550781 L 349.109375 148.550781 C 349.109375 145.195312 346.386719 142.476562 343.035156 142.476562 C 239.304688 142.476562 135.574219 142.476562 31.84375 142.476562 Z M 31.84375 142.476562 " fill-opacity="1" fill-rule="nonzero"/></svg>