<svg xmlns="http://www.w3.org/2000/svg" xmlns:xlink="http://www.w3.org/1999/xlink" width="500" zoomAndPan="magnify" viewBox="0 0 375 374.999991" height="500" preserveAspectRatio="xMidYMid meet" version="1.0"><defs><clipPath id="77df8097b7"><path d="M 2.578125 0 L 372.328125 0 L 372.328125 375 L 2.578125 375 Z M 2.578125 0 " clip-rule="nonzero"/></clipPath></defs><g clip-path="url(#77df8097b7)"><path fill="#9d9ea4" d="M 187.574219 374.835938 C 85.488281 374.835938 2.578125 290.277344 2.578125 186.421875 C 2.578125 83.699219 85.488281 0.164062 187.574219 0.164062 C 289.53125 0.164062 372.441406 83.699219 372.441406 186.421875 C 372.441406 292.058594 291.300781 374.835938 187.574219 374.835938 Z M 187.574219 116.460938 C 150.378906 116.460938 118.886719 148.457031 118.886719 186.421875 C 118.886719 226.152344 149.742188 258.539062 187.574219 258.539062 C 226.042969 258.539062 256.128906 226.789062 256.128906 186.421875 C 256.128906 147.820312 225.410156 116.460938 187.574219 116.460938 Z M 187.574219 116.460938 " fill-opacity="1" fill-rule="nonzero"/></g></svg>