<svg xmlns="http://www.w3.org/2000/svg" xmlns:xlink="http://www.w3.org/1999/xlink" width="500" zoomAndPan="magnify" viewBox="0 0 375 374.999991" height="500" preserveAspectRatio="xMidYMid meet" version="1.0"><path fill="#23a55a" d="M 374.996094 187.496094 C 374.996094 190.566406 374.917969 193.632812 374.769531 196.695312 C 374.617188 199.761719 374.390625 202.820312 374.089844 205.875 C 373.789062 208.929688 373.414062 211.972656 372.964844 215.007812 C 372.515625 218.042969 371.992188 221.066406 371.390625 224.074219 C 370.792969 227.085938 370.121094 230.078125 369.375 233.054688 C 368.628906 236.03125 367.8125 238.988281 366.921875 241.925781 C 366.03125 244.859375 365.066406 247.773438 364.035156 250.664062 C 363 253.550781 361.894531 256.414062 360.722656 259.25 C 359.546875 262.085938 358.304688 264.886719 356.992188 267.664062 C 355.679688 270.4375 354.300781 273.175781 352.855469 275.882812 C 351.410156 278.589844 349.894531 281.257812 348.320312 283.890625 C 346.742188 286.523438 345.101562 289.113281 343.394531 291.664062 C 341.691406 294.214844 339.925781 296.722656 338.097656 299.1875 C 336.269531 301.652344 334.382812 304.070312 332.433594 306.445312 C 330.488281 308.816406 328.484375 311.140625 326.421875 313.414062 C 324.363281 315.6875 322.246094 317.90625 320.078125 320.078125 C 317.90625 322.246094 315.6875 324.363281 313.414062 326.421875 C 311.140625 328.484375 308.816406 330.488281 306.445312 332.433594 C 304.070312 334.382812 301.652344 336.269531 299.1875 338.097656 C 296.722656 339.925781 294.214844 341.691406 291.664062 343.394531 C 289.113281 345.101562 286.523438 346.742188 283.890625 348.320312 C 281.257812 349.894531 278.589844 351.410156 275.882812 352.855469 C 273.175781 354.300781 270.4375 355.679688 267.664062 356.992188 C 264.886719 358.304688 262.085938 359.546875 259.25 360.722656 C 256.414062 361.894531 253.550781 363 250.664062 364.035156 C 247.773438 365.066406 244.859375 366.03125 241.925781 366.921875 C 238.988281 367.8125 236.03125 368.628906 233.054688 369.375 C 230.078125 370.121094 227.085938 370.792969 224.074219 371.390625 C 221.066406 371.992188 218.042969 372.515625 215.007812 372.964844 C 211.972656 373.414062 208.929688 373.789062 205.875 374.089844 C 202.820312 374.390625 199.761719 374.617188 196.695312 374.769531 C 193.632812 374.917969 190.566406 374.996094 187.496094 374.996094 C 184.429688 374.996094 181.363281 374.917969 178.296875 374.769531 C 175.230469 374.617188 172.171875 374.390625 169.121094 374.089844 C 166.066406 373.789062 163.019531 373.414062 159.984375 372.964844 C 156.949219 372.515625 153.929688 371.992188 150.917969 371.390625 C 147.910156 370.792969 144.914062 370.121094 141.9375 369.375 C 138.960938 368.628906 136.007812 367.8125 133.070312 366.921875 C 130.132812 366.03125 127.21875 365.066406 124.332031 364.035156 C 121.441406 363 118.578125 361.894531 115.746094 360.722656 C 112.910156 359.546875 110.105469 358.304688 107.332031 356.992188 C 104.558594 355.679688 101.816406 354.300781 99.113281 352.855469 C 96.40625 351.410156 93.734375 349.894531 91.105469 348.320312 C 88.472656 346.742188 85.878906 345.101562 83.328125 343.394531 C 80.777344 341.691406 78.269531 339.925781 75.804688 338.097656 C 73.339844 336.269531 70.921875 334.382812 68.550781 332.433594 C 66.179688 330.488281 63.855469 328.484375 61.582031 326.421875 C 59.308594 324.363281 57.085938 322.246094 54.917969 320.078125 C 52.746094 317.90625 50.632812 315.6875 48.570312 313.414062 C 46.511719 311.140625 44.507812 308.816406 42.558594 306.445312 C 40.613281 304.070312 38.726562 301.652344 36.898438 299.1875 C 35.070312 296.722656 33.304688 294.214844 31.597656 291.664062 C 29.894531 289.113281 28.253906 286.523438 26.675781 283.890625 C 25.097656 281.257812 23.585938 278.589844 22.140625 275.882812 C 20.691406 273.175781 19.3125 270.4375 18 267.664062 C 16.691406 264.886719 15.445312 262.085938 14.273438 259.25 C 13.097656 256.414062 11.992188 253.550781 10.960938 250.664062 C 9.925781 247.773438 8.964844 244.859375 8.074219 241.925781 C 7.183594 238.988281 6.363281 236.03125 5.617188 233.054688 C 4.875 230.078125 4.203125 227.085938 3.601562 224.074219 C 3.003906 221.066406 2.480469 218.042969 2.03125 215.007812 C 1.578125 211.972656 1.203125 208.929688 0.902344 205.875 C 0.601562 202.820312 0.375 199.761719 0.226562 196.695312 C 0.0742188 193.632812 0 190.566406 0 187.496094 C 0 184.429688 0.0742188 181.363281 0.226562 178.296875 C 0.375 175.230469 0.601562 172.171875 0.902344 169.121094 C 1.203125 166.066406 1.578125 163.019531 2.03125 159.984375 C 2.480469 156.949219 3.003906 153.929688 3.601562 150.917969 C 4.203125 147.910156 4.875 144.914062 5.617188 141.9375 C 6.363281 138.960938 7.183594 136.007812 8.074219 133.070312 C 8.964844 130.132812 9.925781 127.21875 10.960938 124.332031 C 11.992188 121.441406 13.097656 118.578125 14.273438 115.746094 C 15.445312 112.910156 16.691406 110.105469 18 107.332031 C 19.3125 104.558594 20.691406 101.816406 22.140625 99.113281 C 23.585938 96.40625 25.097656 93.734375 26.675781 91.105469 C 28.253906 88.472656 29.894531 85.878906 31.597656 83.328125 C 33.304688 80.777344 35.070312 78.269531 36.898438 75.804688 C 38.726562 73.339844 40.613281 70.921875 42.558594 68.550781 C 44.507812 66.179688 46.511719 63.855469 48.570312 61.582031 C 50.632812 59.308594 52.746094 57.085938 54.917969 54.917969 C 57.085938 52.746094 59.308594 50.632812 61.582031 48.570312 C 63.855469 46.511719 66.179688 44.507812 68.550781 42.558594 C 70.921875 40.613281 73.339844 38.726562 75.804688 36.898438 C 78.269531 35.070312 80.777344 33.304688 83.328125 31.597656 C 85.878906 29.894531 88.472656 28.253906 91.105469 26.675781 C 93.734375 25.097656 96.40625 23.585938 99.113281 22.140625 C 101.816406 20.691406 104.558594 19.3125 107.332031 18 C 110.105469 16.691406 112.910156 15.445312 115.746094 14.273438 C 118.578125 13.097656 121.441406 11.992188 124.332031 10.960938 C 127.21875 9.925781 130.132812 8.964844 133.070312 8.074219 C 136.007812 7.183594 138.960938 6.363281 141.9375 5.617188 C 144.914062 4.875 147.910156 4.203125 150.917969 3.601562 C 153.929688 3.003906 156.949219 2.480469 159.984375 2.03125 C 163.019531 1.578125 166.066406 1.203125 169.121094 0.902344 C 172.171875 0.601562 175.230469 0.375 178.296875 0.226562 C 181.363281 0.0742188 184.429688 0 187.496094 0 C 190.566406 0 193.632812 0.0742188 196.695312 0.226562 C 199.761719 0.375 202.820312 0.601562 205.875 0.902344 C 208.929688 1.203125 211.972656 1.578125 215.007812 2.03125 C 218.042969 2.480469 221.066406 3.003906 224.074219 3.601562 C 227.085938 4.203125 230.078125 4.875 233.054688 5.617188 C 236.03125 6.363281 238.988281 7.183594 241.925781 8.074219 C 244.859375 8.964844 247.773438 9.925781 250.664062 10.960938 C 253.550781 11.992188 256.414062 13.097656 259.25 14.273438 C 262.085938 15.445312 264.886719 16.691406 267.664062 18 C 270.4375 19.3125 273.175781 20.691406 275.882812 22.140625 C 278.589844 23.585938 281.257812 25.097656 283.890625 26.675781 C 286.523438 28.253906 289.113281 29.894531 291.664062 31.597656 C 294.214844 33.304688 296.722656 35.070312 299.1875 36.898438 C 301.652344 38.726562 304.070312 40.613281 306.445312 42.558594 C 308.816406 44.507812 311.140625 46.511719 313.414062 48.570312 C 315.6875 50.632812 317.90625 52.746094 320.078125 54.917969 C 322.246094 57.085938 324.363281 59.308594 326.421875 61.582031 C 328.484375 63.855469 330.488281 66.179688 332.433594 68.550781 C 334.382812 70.921875 336.269531 73.339844 338.097656 75.804688 C 339.925781 78.269531 341.691406 80.777344 343.394531 83.328125 C 345.101562 85.878906 346.742188 88.472656 348.320312 91.105469 C 349.894531 93.734375 351.410156 96.40625 352.855469 99.113281 C 354.300781 101.816406 355.679688 104.558594 356.992188 107.332031 C 358.304688 110.105469 359.546875 112.910156 360.722656 115.746094 C 361.894531 118.578125 363 121.441406 364.035156 124.332031 C 365.066406 127.21875 366.03125 130.132812 366.921875 133.070312 C 367.8125 136.007812 368.628906 138.960938 369.375 141.9375 C 370.121094 144.914062 370.792969 147.910156 371.390625 150.917969 C 371.992188 153.929688 372.515625 156.949219 372.964844 159.984375 C 373.414062 163.019531 373.789062 166.066406 374.089844 169.121094 C 374.390625 172.171875 374.617188 175.230469 374.769531 178.296875 C 374.917969 181.363281 374.996094 184.429688 374.996094 187.496094 Z M 374.996094 187.496094 " fill-opacity="1" fill-rule="nonzero"/></svg>