<svg xmlns="http://www.w3.org/2000/svg" xmlns:xlink="http://www.w3.org/1999/xlink" width="500" zoomAndPan="magnify" viewBox="0 0 375 374.999991" height="500" preserveAspectRatio="xMidYMid meet" version="1.0"><defs><clipPath id="ce063b2629"><path d="M 1.40625 1 L 374 1 L 374 375 L 1.40625 375 Z M 1.40625 1 " clip-rule="nonzero"/></clipPath></defs><g clip-path="url(#ce063b2629)"><path fill="#9d9ea4" d="M 332.992188 187.355469 C 321.628906 186.636719 311.128906 190.378906 303.070312 196.851562 C 297.460938 201.453125 289.117188 197.28125 289.117188 190.089844 L 289.117188 95.863281 C 289.117188 91.117188 285.234375 87.234375 280.488281 87.234375 L 183.816406 87.234375 C 176.335938 87.234375 172.59375 78.601562 177.484375 72.847656 C 184.246094 65.078125 188.132812 54.863281 187.84375 43.789062 C 187.410156 21.632812 169.574219 3.078125 147.421875 1.636719 C 122.390625 0.0546875 101.53125 19.90625 101.53125 44.652344 C 101.53125 55.441406 105.414062 65.222656 111.886719 72.703125 C 116.777344 78.3125 112.894531 87.089844 105.414062 87.089844 L 10.039062 87.089844 C 5.289062 87.089844 1.40625 90.972656 1.40625 95.71875 L 1.40625 190.089844 C 1.40625 197.28125 9.894531 201.453125 15.503906 196.851562 C 23.558594 190.234375 34.207031 186.492188 45.570312 187.210938 C 67.148438 188.507812 84.699219 206.203125 85.851562 227.78125 C 87.289062 252.8125 67.722656 273.527344 42.980469 273.527344 C 32.621094 273.527344 22.984375 269.929688 15.648438 263.742188 C 10.039062 259.140625 1.550781 263.167969 1.550781 270.359375 L 1.550781 366.167969 C 1.550781 370.917969 5.433594 374.800781 10.179688 374.800781 L 105.414062 374.800781 C 112.75 374.800781 116.777344 366.167969 111.886719 360.558594 C 105.125 352.648438 101.242188 342.578125 101.671875 331.355469 C 102.394531 309.632812 119.367188 291.507812 140.945312 289.636719 C 166.554688 287.480469 187.84375 307.761719 187.84375 332.9375 C 187.84375 343.726562 183.960938 353.222656 177.484375 360.847656 C 172.738281 366.3125 176.910156 374.945312 184.101562 374.945312 L 280.488281 374.945312 C 285.234375 374.945312 289.117188 371.058594 289.117188 366.3125 L 289.117188 270.792969 C 289.117188 263.601562 297.460938 259.429688 303.070312 264.03125 C 310.550781 270.074219 319.902344 273.667969 330.261719 273.667969 C 355.003906 273.667969 375 252.8125 373.273438 227.636719 C 371.835938 206.058594 354.429688 188.792969 332.992188 187.355469 Z M 332.992188 187.355469 " fill-opacity="1" fill-rule="nonzero"/></g></svg>