<svg xmlns="http://www.w3.org/2000/svg" xmlns:xlink="http://www.w3.org/1999/xlink" width="500" zoomAndPan="magnify" viewBox="0 0 375 374.999991" height="500" preserveAspectRatio="xMidYMid meet" version="1.0"><defs><clipPath id="f2b8b190a9"><path d="M 0 133 L 128 133 L 128 374.71875 L 0 374.71875 Z M 0 133 " clip-rule="nonzero"/></clipPath><clipPath id="49bf677dda"><path d="M 96 53 L 321 53 L 321 374.71875 L 96 374.71875 Z M 96 53 " clip-rule="nonzero"/></clipPath></defs><g clip-path="url(#f2b8b190a9)"><path fill="#9d9ea4" d="M 127.605469 217.949219 C 111.117188 197.460938 101.863281 171.839844 101.863281 144.730469 C 101.863281 141.140625 102.085938 137.597656 102.40625 134.085938 C 99.085938 133.59375 95.773438 133.070312 92.316406 133.070312 C 54.332031 133.070312 23.539062 163.859375 23.539062 201.847656 C 23.539062 226.363281 36.460938 247.738281 55.773438 259.914062 C 22.984375 274.074219 0.0195312 306.675781 0.0195312 344.660156 L 0.0195312 374.429688 L 70.507812 374.429688 L 70.507812 335.160156 C 70.507812 288.679688 92.085938 245.742188 127.605469 217.949219 " fill-opacity="1" fill-rule="nonzero"/></g><g clip-path="url(#49bf677dda)"><path fill="#9d9ea4" d="M 270.050781 325.878906 C 270.050781 295.703125 291.691406 270.53125 320.253906 264.941406 C 307.21875 246.269531 289.242188 231.296875 268.09375 222.164062 C 293.839844 205.925781 311.074219 177.425781 311.074219 144.730469 C 311.074219 94.089844 270.015625 53.03125 219.367188 53.03125 C 169.25 53.03125 128.585938 93.25 127.742188 143.167969 C 127.734375 143.695312 127.667969 144.203125 127.667969 144.730469 C 127.667969 148.535156 127.945312 152.265625 128.402344 155.941406 C 128.5625 157.253906 128.839844 158.519531 129.058594 159.8125 C 129.449219 162.117188 129.863281 164.410156 130.421875 166.652344 C 130.8125 168.21875 131.285156 169.742188 131.753906 171.277344 C 132.320312 173.125 132.925781 174.953125 133.605469 176.75 C 134.246094 178.441406 134.921875 180.097656 135.65625 181.738281 C 136.320312 183.210938 137.039062 184.652344 137.777344 186.082031 C 138.695312 187.882812 139.628906 189.667969 140.660156 191.394531 C 141.265625 192.394531 141.9375 193.347656 142.578125 194.320312 C 149.855469 205.472656 159.363281 215.042969 170.648438 222.164062 C 165.066406 224.570312 159.710938 227.40625 154.59375 230.582031 C 149.996094 233.433594 145.628906 236.617188 141.460938 240.03125 C 139.859375 241.34375 138.429688 242.820312 136.902344 244.207031 C 134.332031 246.535156 131.777344 248.875 129.414062 251.410156 C 127.847656 253.089844 126.425781 254.882812 124.953125 256.648438 C 122.867188 259.152344 120.835938 261.683594 118.949219 264.347656 C 117.59375 266.269531 116.339844 268.238281 115.089844 270.234375 C 113.359375 273 111.75 275.828125 110.238281 278.734375 C 109.167969 280.796875 108.128906 282.867188 107.175781 284.996094 C 105.785156 288.101562 104.585938 291.289062 103.445312 294.527344 C 102.707031 296.625 101.929688 298.695312 101.304688 300.84375 C 100.246094 304.484375 99.472656 308.226562 98.746094 311.996094 C 98.386719 313.875 97.898438 315.707031 97.628906 317.613281 C 96.804688 323.355469 96.308594 329.195312 96.308594 335.160156 L 96.308594 374.84375 L 294.390625 374.84375 C 279.695312 363.46875 270.050781 345.855469 270.050781 325.878906 " fill-opacity="1" fill-rule="nonzero"/></g><path fill="#9d9ea4" d="M 361.582031 331.496094 C 359.390625 333.789062 355.78125 334.792969 348.265625 335.210938 C 346.386719 335.316406 344.726562 335.402344 343.277344 335.464844 C 343.265625 337.132812 343.230469 339.851562 343.160156 343.609375 C 342.972656 355.445312 336.246094 357.316406 333.359375 357.570312 C 333.332031 357.570312 333.324219 357.570312 333.300781 357.570312 C 326.792969 357.570312 322.765625 353.378906 322.765625 347.140625 L 322.765625 335.722656 L 309.078125 335.273438 C 303.191406 334.449219 299.945312 330.519531 299.945312 324.953125 C 299.945312 319 303.796875 315.007812 309.527344 315.007812 L 322.234375 315.429688 C 322.289062 314.25 322.394531 311.597656 322.558594 307.394531 L 322.636719 305.289062 C 322.71875 301.429688 323.925781 298.40625 326.210938 296.410156 C 327.601562 295.179688 330.003906 293.777344 333.773438 294.238281 C 336.839844 294.140625 338.867188 295.796875 340.097656 297.128906 C 342.230469 299.441406 343.113281 302.675781 342.765625 307.003906 L 342.777344 315.402344 C 343.566406 315.347656 344.425781 315.285156 345.351562 315.207031 C 351.09375 314.75 354.761719 314.890625 357.292969 315.613281 C 363.160156 317.285156 364.203125 321.636719 364.390625 323.425781 C 364.679688 326.417969 363.679688 329.289062 361.582031 331.496094 Z M 332.199219 283.082031 C 308.601562 283.082031 289.402344 302.28125 289.402344 325.878906 C 289.402344 349.472656 308.601562 368.667969 332.199219 368.667969 C 355.792969 368.667969 374.980469 349.472656 374.980469 325.878906 C 374.980469 302.28125 355.792969 283.082031 332.199219 283.082031 " fill-opacity="1" fill-rule="nonzero"/></svg>