<svg xmlns="http://www.w3.org/2000/svg" xmlns:xlink="http://www.w3.org/1999/xlink" width="500" zoomAndPan="magnify" viewBox="0 0 375 374.999991" height="500" preserveAspectRatio="xMidYMid meet" version="1.0"><defs><clipPath id="7ba14d669b"><path d="M 0 25 L 375 25 L 375 366.273438 L 0 366.273438 Z M 0 25 " clip-rule="nonzero"/></clipPath><clipPath id="dbb2460a77"><path d="M 51 8.523438 L 86 8.523438 L 86 69 L 51 69 Z M 51 8.523438 " clip-rule="nonzero"/></clipPath><clipPath id="66b7dee6b9"><path d="M 170 8.523438 L 205 8.523438 L 205 69 L 170 69 Z M 170 8.523438 " clip-rule="nonzero"/></clipPath><clipPath id="3670dc1c14"><path d="M 289 8.523438 L 324 8.523438 L 324 69 L 289 69 Z M 289 8.523438 " clip-rule="nonzero"/></clipPath></defs><g clip-path="url(#7ba14d669b)"><path fill="#9d9ea4" d="M 0.00390625 76.703125 C 0.00390625 48.460938 22.898438 25.566406 51.136719 25.566406 L 323.863281 25.566406 C 352.105469 25.566406 374.996094 48.460938 374.996094 76.703125 L 374.996094 315.335938 C 374.996094 343.578125 352.105469 366.472656 323.863281 366.472656 L 51.136719 366.472656 C 22.898438 366.472656 0.00390625 343.578125 0.00390625 315.335938 Z M 51.136719 59.660156 C 41.726562 59.660156 34.09375 67.289062 34.09375 76.703125 L 34.09375 315.335938 C 34.09375 324.75 41.726562 332.382812 51.136719 332.382812 L 323.863281 332.382812 C 333.277344 332.382812 340.90625 324.75 340.90625 315.335938 L 340.90625 76.703125 C 340.90625 67.289062 333.277344 59.660156 323.863281 59.660156 Z M 51.136719 59.660156 " fill-opacity="1" fill-rule="evenodd"/></g><path fill="#9d9ea4" d="M 0.00390625 76.703125 C 0.00390625 48.460938 22.898438 25.566406 51.136719 25.566406 L 323.863281 25.566406 C 352.105469 25.566406 374.996094 48.460938 374.996094 76.703125 L 374.996094 127.839844 C 374.996094 137.253906 367.367188 144.882812 357.953125 144.882812 L 17.046875 144.882812 C 7.632812 144.882812 0.00390625 137.253906 0.00390625 127.839844 Z M 51.136719 59.660156 C 41.726562 59.660156 34.09375 67.289062 34.09375 76.703125 L 34.09375 110.792969 L 340.90625 110.792969 L 340.90625 76.703125 C 340.90625 67.289062 333.277344 59.660156 323.863281 59.660156 Z M 51.136719 59.660156 " fill-opacity="1" fill-rule="evenodd"/><g clip-path="url(#dbb2460a77)"><path fill="#9d9ea4" d="M 51.136719 8.523438 L 85.230469 8.523438 L 85.230469 68.179688 L 51.136719 68.179688 Z M 51.136719 8.523438 " fill-opacity="1" fill-rule="evenodd"/></g><g clip-path="url(#66b7dee6b9)"><path fill="#9d9ea4" d="M 170.453125 8.523438 L 204.546875 8.523438 L 204.546875 68.179688 L 170.453125 68.179688 Z M 170.453125 8.523438 " fill-opacity="1" fill-rule="evenodd"/></g><g clip-path="url(#3670dc1c14)"><path fill="#9d9ea4" d="M 289.769531 8.523438 L 323.863281 8.523438 L 323.863281 68.179688 L 289.769531 68.179688 Z M 289.769531 8.523438 " fill-opacity="1" fill-rule="evenodd"/></g><path fill="#9d9ea4" d="M 76.707031 178.976562 L 110.796875 178.976562 L 110.796875 213.066406 L 76.707031 213.066406 Z M 76.707031 178.976562 " fill-opacity="1" fill-rule="evenodd"/><path fill="#9d9ea4" d="M 76.707031 247.15625 L 110.796875 247.15625 L 110.796875 281.246094 L 76.707031 281.246094 Z M 76.707031 247.15625 " fill-opacity="1" fill-rule="evenodd"/><path fill="#9d9ea4" d="M 170.453125 178.976562 L 204.546875 178.976562 L 204.546875 213.066406 L 170.453125 213.066406 Z M 170.453125 178.976562 " fill-opacity="1" fill-rule="evenodd"/><path fill="#9d9ea4" d="M 170.453125 247.15625 L 204.546875 247.15625 L 204.546875 281.246094 L 170.453125 281.246094 Z M 170.453125 247.15625 " fill-opacity="1" fill-rule="evenodd"/><path fill="#9d9ea4" d="M 264.203125 178.976562 L 298.292969 178.976562 L 298.292969 213.066406 L 264.203125 213.066406 Z M 264.203125 178.976562 " fill-opacity="1" fill-rule="evenodd"/><path fill="#9d9ea4" d="M 264.203125 247.15625 L 298.292969 247.15625 L 298.292969 281.246094 L 264.203125 281.246094 Z M 264.203125 247.15625 " fill-opacity="1" fill-rule="evenodd"/></svg>