<svg xmlns="http://www.w3.org/2000/svg" xmlns:xlink="http://www.w3.org/1999/xlink" width="500" zoomAndPan="magnify" viewBox="0 0 375 374.999991" height="500" preserveAspectRatio="xMidYMid meet" version="1.0"><path fill="#9d9ea4" d="M 71.519531 158.503906 C 39.492188 158.503906 13.53125 184.46875 13.53125 216.496094 L 13.53125 244.542969 C 13.53125 251.101562 14.644531 257.617188 16.824219 263.808594 L 20.296875 273.664062 C 22.492188 279.898438 27.71875 284.578125 34.152344 286.070312 C 40.589844 287.566406 47.34375 285.671875 52.0625 281.042969 L 133.378906 201.300781 C 138.011719 196.757812 140.058594 190.191406 138.820312 183.820312 C 137.585938 177.449219 133.238281 172.125 127.242188 169.640625 L 111.015625 162.921875 C 103.976562 160.003906 96.4375 158.503906 88.820312 158.503906 Z M 71.519531 158.503906 " fill-opacity="1" fill-rule="evenodd"/><path fill="#9d9ea4" d="M 293.8125 158.503906 C 261.785156 158.503906 235.824219 184.46875 235.824219 216.496094 L 235.824219 303.480469 C 235.824219 335.507812 261.785156 361.46875 293.8125 361.46875 L 303.480469 361.46875 C 335.507812 361.46875 361.46875 335.507812 361.46875 303.480469 L 361.46875 216.496094 C 361.46875 184.46875 335.507812 158.503906 303.480469 158.503906 Z M 293.8125 158.503906 " fill-opacity="1" fill-rule="evenodd"/><path fill="#9d9ea4" d="M 241.488281 52.191406 L 168.171875 52.191406 C 104.117188 52.191406 52.191406 104.117188 52.191406 168.171875 L 52.191406 217.761719 L 13.53125 217.761719 L 13.53125 168.171875 C 13.53125 82.765625 82.765625 13.53125 168.171875 13.53125 L 241.488281 13.53125 C 255.367188 13.53125 268.675781 19.042969 278.488281 28.855469 L 251.152344 56.195312 C 248.589844 53.628906 245.109375 52.191406 241.488281 52.191406 Z M 323.867188 55.4375 C 347.359375 71.097656 361.46875 97.464844 361.46875 125.699219 L 361.46875 255.15625 L 322.808594 255.15625 L 322.808594 125.699219 C 322.808594 110.390625 315.160156 96.09375 302.421875 87.605469 Z M 323.867188 55.4375 " fill-opacity="1" fill-rule="evenodd"/><path fill="#9d9ea4" d="M -0.136719 347.800781 L 347.800781 -0.136719 L 375.136719 27.199219 L 27.199219 375.136719 Z M -0.136719 347.800781 " fill-opacity="1" fill-rule="evenodd"/><path fill="#9d9ea4" d="M 148.839844 255.15625 C 148.839844 247.570312 144.40625 240.6875 137.496094 237.554688 C 130.589844 234.417969 122.488281 235.613281 116.78125 240.605469 L 39.460938 308.261719 L 52.191406 322.808594 L 32.859375 322.808594 C 32.859375 344.160156 50.167969 361.46875 71.519531 361.46875 L 90.851562 361.46875 C 122.878906 361.46875 148.839844 335.507812 148.839844 303.480469 Z M 148.839844 255.15625 " fill-opacity="1" fill-rule="evenodd"/></svg>