<svg xmlns="http://www.w3.org/2000/svg" xmlns:xlink="http://www.w3.org/1999/xlink" width="500" zoomAndPan="magnify" viewBox="0 0 375 374.999991" height="500" preserveAspectRatio="xMidYMid meet" version="1.0"><path fill="#9d9ea4" d="M 187.5 0 C 84.167969 0 0 84.167969 0 187.5 C 0 290.832031 84.167969 375 187.5 375 C 290.832031 375 375 290.832031 375 187.5 C 375 84.167969 290.832031 0 187.5 0 Z M 187.5 358.332031 C 93.332031 358.332031 16.667969 281.667969 16.667969 187.5 C 16.667969 93.332031 93.332031 16.667969 187.5 16.667969 C 281.667969 16.667969 358.332031 93.332031 358.332031 187.5 C 358.332031 281.667969 281.667969 358.332031 187.5 358.332031 Z M 87.5 166.667969 C 87.5 155 96.667969 145.832031 108.332031 145.832031 C 120 145.832031 129.167969 155 129.167969 166.667969 C 129.167969 178.332031 120 187.5 108.332031 187.5 C 96.667969 187.5 87.5 178.332031 87.5 166.667969 Z M 245.832031 166.667969 C 245.832031 155 255 145.832031 266.667969 145.832031 C 278.332031 145.832031 287.5 155 287.5 166.667969 C 287.5 178.332031 278.332031 187.5 266.667969 187.5 C 255 187.5 245.832031 178.332031 245.832031 166.667969 Z M 311.667969 223.332031 C 295.832031 278.332031 245 316.667969 187.5 316.667969 C 130 316.667969 79.167969 278.332031 63.332031 223.332031 C 62.082031 218.75 64.582031 214.167969 69.167969 212.917969 C 73.75 211.667969 78.332031 214.167969 79.582031 218.75 C 92.917969 266.667969 137.5 300 187.5 300 C 237.5 300 282.082031 266.667969 295.832031 218.332031 C 297.082031 213.75 301.667969 211.25 306.25 212.5 C 310.417969 214.167969 312.917969 218.75 311.667969 223.332031 Z M 311.667969 223.332031 " fill-opacity="1" fill-rule="nonzero"/></svg>