<svg xmlns="http://www.w3.org/2000/svg" xmlns:xlink="http://www.w3.org/1999/xlink" width="500" zoomAndPan="magnify" viewBox="0 0 375 374.999991" height="500" preserveAspectRatio="xMidYMid meet" version="1.0"><defs><clipPath id="cb08946057"><path d="M 0 2 L 375 2 L 375 374.25 L 0 374.25 Z M 0 2 " clip-rule="nonzero"/></clipPath></defs><path fill="#9d9ea4" d="M 244.960938 110.335938 C 244.960938 112.144531 244.875 113.945312 244.695312 115.746094 C 244.519531 117.546875 244.253906 119.332031 243.902344 121.105469 C 243.550781 122.875 243.109375 124.628906 242.585938 126.359375 C 242.0625 128.085938 241.453125 129.789062 240.761719 131.457031 C 240.070312 133.128906 239.296875 134.757812 238.445312 136.355469 C 237.59375 137.949219 236.664062 139.496094 235.660156 141 C 234.65625 142.503906 233.582031 143.953125 232.433594 145.351562 C 231.289062 146.746094 230.074219 148.085938 228.796875 149.363281 C 227.519531 150.640625 226.183594 151.851562 224.785156 153 C 223.386719 154.148438 221.9375 155.222656 220.433594 156.226562 C 218.929688 157.230469 217.382812 158.160156 215.789062 159.011719 C 214.195312 159.863281 212.5625 160.636719 210.890625 161.328125 C 209.222656 162.019531 207.523438 162.625 205.792969 163.152344 C 204.0625 163.675781 202.3125 164.113281 200.539062 164.46875 C 198.765625 164.820312 196.980469 165.085938 195.179688 165.261719 C 193.382812 165.441406 191.578125 165.527344 189.769531 165.527344 C 187.964844 165.527344 186.160156 165.441406 184.363281 165.261719 C 182.5625 165.085938 180.777344 164.820312 179.003906 164.46875 C 177.230469 164.113281 175.480469 163.675781 173.75 163.152344 C 172.019531 162.625 170.320312 162.019531 168.648438 161.328125 C 166.980469 160.636719 165.347656 159.863281 163.753906 159.011719 C 162.160156 158.160156 160.609375 157.230469 159.109375 156.226562 C 157.605469 155.222656 156.15625 154.148438 154.757812 153 C 153.359375 151.851562 152.023438 150.640625 150.746094 149.363281 C 149.464844 148.085938 148.253906 146.746094 147.105469 145.351562 C 145.960938 143.953125 144.886719 142.503906 143.882812 141 C 142.875 139.496094 141.949219 137.949219 141.097656 136.355469 C 140.246094 134.757812 139.472656 133.128906 138.78125 131.457031 C 138.089844 129.789062 137.480469 128.085938 136.957031 126.359375 C 136.429688 124.628906 135.992188 122.875 135.640625 121.105469 C 135.289062 119.332031 135.023438 117.546875 134.84375 115.746094 C 134.667969 113.945312 134.578125 112.144531 134.578125 110.335938 C 134.578125 108.527344 134.667969 106.726562 134.84375 104.925781 C 135.023438 103.128906 135.289062 101.34375 135.640625 99.570312 C 135.992188 97.796875 136.429688 96.042969 136.957031 94.316406 C 137.480469 92.585938 138.089844 90.886719 138.78125 89.214844 C 139.472656 87.546875 140.246094 85.914062 141.097656 84.320312 C 141.949219 82.726562 142.875 81.175781 143.882812 79.671875 C 144.886719 78.171875 145.960938 76.71875 147.105469 75.324219 C 148.253906 73.925781 149.464844 72.589844 150.746094 71.308594 C 152.023438 70.03125 153.359375 68.820312 154.757812 67.671875 C 156.15625 66.527344 157.605469 65.449219 159.109375 64.445312 C 160.609375 63.441406 162.160156 62.515625 163.753906 61.660156 C 165.347656 60.808594 166.980469 60.039062 168.648438 59.347656 C 170.320312 58.652344 172.019531 58.046875 173.75 57.519531 C 175.480469 56.996094 177.230469 56.558594 179.003906 56.207031 C 180.777344 55.851562 182.5625 55.585938 184.363281 55.410156 C 186.160156 55.234375 187.964844 55.144531 189.769531 55.144531 C 191.578125 55.144531 193.382812 55.234375 195.179688 55.410156 C 196.980469 55.585938 198.765625 55.851562 200.539062 56.207031 C 202.3125 56.558594 204.0625 56.996094 205.792969 57.519531 C 207.523438 58.046875 209.222656 58.652344 210.890625 59.347656 C 212.5625 60.039062 214.195312 60.808594 215.789062 61.660156 C 217.382812 62.515625 218.929688 63.441406 220.433594 64.445312 C 221.9375 65.449219 223.386719 66.527344 224.785156 67.671875 C 226.183594 68.820312 227.519531 70.03125 228.796875 71.308594 C 230.074219 72.589844 231.289062 73.925781 232.433594 75.324219 C 233.582031 76.71875 234.65625 78.171875 235.660156 79.671875 C 236.664062 81.175781 237.59375 82.726562 238.445312 84.320312 C 239.296875 85.914062 240.070312 87.546875 240.761719 89.214844 C 241.453125 90.886719 242.0625 92.585938 242.585938 94.316406 C 243.109375 96.042969 243.550781 97.796875 243.902344 99.570312 C 244.253906 101.34375 244.519531 103.128906 244.695312 104.925781 C 244.875 106.726562 244.960938 108.527344 244.960938 110.335938 Z M 244.960938 110.335938 " fill-opacity="1" fill-rule="nonzero"/><g clip-path="url(#cb08946057)"><path fill="#9d9ea4" d="M 276.664062 186.5 L 268.097656 181.558594 C 260.800781 177.34375 252.527344 175.125 244.101562 175.125 L 158.242188 175.125 C 149.816406 175.125 141.539062 172.90625 134.242188 168.695312 L 124.828125 163.257812 C 75.832031 134.964844 45.652344 82.683594 45.652344 26.109375 L 45.652344 26.105469 C 45.652344 15.050781 38.226562 4.855469 27.367188 2.785156 C 12.75 -0.00390625 0.0585938 11.105469 0.0585938 25.148438 C 0.0585938 98.621094 39.257812 166.515625 102.886719 203.253906 L 110.582031 207.695312 C 118.007812 211.980469 122.582031 219.902344 122.582031 228.476562 L 122.582031 374.210938 C 122.582031 378.460938 122.207031 382.699219 121.464844 386.882812 L 117.957031 406.617188 C 105.316406 477.746094 98.914062 549.839844 98.816406 622.082031 C 98.796875 636.8125 109.09375 650.132812 123.621094 652.574219 C 142.640625 655.769531 159.121094 640.996094 158.800781 622.484375 C 157.917969 571.367188 158.675781 520.238281 167.628906 469.90625 L 180.421875 397.964844 C 181.128906 393.992188 184.585938 391.09375 188.625 391.09375 C 193.226562 391.09375 196.957031 394.832031 196.953125 399.433594 L 196.9375 411.777344 C 196.839844 484.035156 203.054688 556.160156 215.507812 627.335938 C 218.132812 642.316406 231.351562 653.722656 246.542969 652.972656 C 264.929688 652.066406 277.820312 635.390625 274.75 617.835938 C 262.785156 549.417969 256.820312 480.082031 256.925781 410.625 L 256.953125 391.09375 L 256.960938 391.09375 L 256.960938 232.246094 C 256.960938 230.355469 259.078125 229.167969 260.671875 230.183594 C 306.097656 259.160156 333.863281 309.355469 333.894531 363.554688 C 333.898438 374.539062 341.113281 384.71875 351.875 386.910156 C 366.621094 389.910156 379.488281 378.742188 379.488281 364.601562 C 379.488281 291.128906 340.292969 223.238281 276.664062 186.5 Z M 276.664062 186.5 " fill-opacity="1" fill-rule="nonzero"/></g></svg>