<svg xmlns="http://www.w3.org/2000/svg" xmlns:xlink="http://www.w3.org/1999/xlink" width="500" zoomAndPan="magnify" viewBox="0 0 375 374.999991" height="500" preserveAspectRatio="xMidYMid meet" version="1.0"><defs><clipPath id="8805ed395a"><path d="M 42.148438 0 L 333 0 L 333 375 L 42.148438 375 Z M 42.148438 0 " clip-rule="nonzero"/></clipPath><clipPath id="66cf986589"><path d="M 208.078125 243.972656 L 358 243.972656 L 358 366 L 208.078125 366 Z M 208.078125 243.972656 " clip-rule="nonzero"/></clipPath></defs><g clip-path="url(#8805ed395a)"><path fill="#9d9ea4" d="M 332.84375 346.671875 C 332.84375 246.605469 267.714844 165.535156 187.496094 165.535156 C 107.273438 165.535156 42.148438 246.605469 42.148438 346.671875 C 42.148438 362.273438 107.273438 374.992188 187.496094 374.992188 C 267.714844 374.992188 332.84375 362.273438 332.84375 346.671875 Z M 187.496094 0.0078125 C 231.25 0.0078125 266.699219 35.453125 266.699219 79.210938 C 266.699219 122.96875 231.25 158.414062 187.496094 158.414062 C 143.738281 158.414062 108.292969 122.96875 108.292969 79.210938 C 108.292969 35.453125 143.738281 0.0078125 187.496094 0.0078125 Z M 187.496094 0.0078125 " fill-opacity="1" fill-rule="evenodd"/></g><g clip-path="url(#66cf986589)"><path fill="#ffffff" d="M 208.433594 305.691406 C 217.050781 279.488281 251.25 289.5 259.429688 318.8125 C 259.429688 318.8125 294.910156 251 357.734375 243.980469 C 337.734375 260.710938 307.0625 291.363281 292.269531 313.269531 C 275.464844 338.152344 259.894531 367.195312 251.300781 365.566406 C 244.460938 364.273438 237.816406 323.617188 208.433594 305.699219 Z M 208.433594 305.691406 " fill-opacity="1" fill-rule="evenodd"/></g></svg>