<svg xmlns="http://www.w3.org/2000/svg" xmlns:xlink="http://www.w3.org/1999/xlink" width="500" zoomAndPan="magnify" viewBox="0 0 375 374.999991" height="500" preserveAspectRatio="xMidYMid meet" version="1.0"><defs><clipPath id="f1544a992b"><path d="M 0 13.59375 L 375 13.59375 L 375 361.59375 L 0 361.59375 Z M 0 13.59375 " clip-rule="nonzero"/></clipPath></defs><g clip-path="url(#f1544a992b)"><path fill="#9d9ea4" d="M 374.785156 227.632812 L 374.785156 80.480469 C 374.785156 43.5625 344.816406 13.59375 307.898438 13.59375 L 67.101562 13.59375 C 30.183594 13.59375 0.214844 43.5625 0.214844 80.480469 L 0.214844 294.519531 C 0.214844 331.4375 30.183594 361.40625 67.101562 361.40625 L 307.898438 361.40625 C 344.816406 361.40625 374.785156 331.4375 374.785156 294.519531 L 374.785156 281.140625 C 374.785156 273.746094 368.800781 267.765625 361.40625 267.765625 C 354.011719 267.765625 348.027344 273.746094 348.027344 281.140625 L 348.027344 294.519531 C 348.027344 316.675781 330.054688 334.652344 307.898438 334.652344 L 67.101562 334.652344 C 44.945312 334.652344 26.972656 316.675781 26.972656 294.519531 L 26.972656 80.480469 C 26.972656 58.324219 44.945312 40.347656 67.101562 40.347656 L 307.898438 40.347656 C 330.054688 40.347656 348.027344 58.324219 348.027344 80.480469 L 348.027344 227.632812 C 348.027344 235.027344 354.011719 241.007812 361.40625 241.007812 C 368.800781 241.007812 374.785156 235.027344 374.785156 227.632812 " fill-opacity="1" fill-rule="evenodd"/></g><path fill="#9d9ea4" d="M 174.984375 209.132812 L 174.984375 234.84375 C 174.984375 238.265625 174.644531 240.984375 173.964844 243.019531 C 173.285156 245.058594 172.058594 246.914062 170.253906 248.558594 C 168.453125 250.207031 166.152344 251.800781 163.359375 253.316406 C 155.257812 257.707031 147.445312 260.917969 139.949219 262.90625 C 132.449219 264.941406 124.269531 265.933594 115.441406 265.933594 C 105.144531 265.933594 95.738281 264.339844 87.273438 261.179688 C 78.808594 258.019531 71.570312 253.421875 65.589844 247.382812 C 59.628906 241.324219 55.03125 234.035156 51.84375 225.410156 C 48.632812 216.839844 47.039062 207.226562 47.039062 196.617188 C 47.039062 186.195312 48.578125 176.65625 51.6875 168.007812 C 54.796875 159.335938 59.394531 151.992188 65.40625 145.957031 C 71.441406 139.921875 78.808594 135.296875 87.457031 132.109375 C 96.105469 128.894531 105.929688 127.300781 116.902344 127.300781 C 125.917969 127.300781 133.910156 128.503906 140.863281 130.90625 C 147.8125 133.3125 153.457031 136.367188 157.792969 140 C 162.105469 143.65625 165.371094 147.550781 167.566406 151.625 C 169.757812 155.703125 170.855469 159.335938 170.855469 162.523438 C 170.855469 165.917969 169.601562 168.84375 167.066406 171.25 C 164.535156 173.652344 161.503906 174.855469 157.976562 174.855469 C 156.015625 174.855469 154.136719 174.382812 152.332031 173.46875 C 150.527344 172.582031 149.039062 171.300781 147.8125 169.65625 C 144.46875 164.402344 141.621094 160.433594 139.292969 157.765625 C 136.996094 155.074219 133.859375 152.800781 129.941406 150.972656 C 125.996094 149.171875 120.980469 148.257812 114.890625 148.257812 C 108.621094 148.257812 103.003906 149.328125 98.066406 151.496094 C 93.125 153.664062 88.894531 156.800781 85.394531 160.902344 C 81.890625 165.03125 79.199219 170.074219 77.34375 176.03125 C 75.492188 182.011719 74.550781 188.625 74.550781 195.886719 C 74.550781 211.617188 78.179688 223.714844 85.394531 232.203125 C 92.628906 240.671875 102.6875 244.902344 115.621094 244.902344 C 121.894531 244.902344 127.796875 244.09375 133.3125 242.445312 C 138.824219 240.800781 144.441406 238.449219 150.085938 235.390625 L 150.085938 213.628906 L 129.078125 213.628906 C 124.007812 213.628906 120.167969 212.871094 117.582031 211.328125 C 114.996094 209.8125 113.714844 207.226562 113.714844 203.570312 C 113.714844 200.589844 114.785156 198.109375 116.957031 196.148438 C 119.125 194.214844 122.050781 193.222656 125.761719 193.222656 L 156.589844 193.222656 C 160.378906 193.222656 163.566406 193.5625 166.179688 194.242188 C 168.820312 194.921875 170.933594 196.410156 172.554688 198.734375 C 174.175781 201.035156 174.984375 204.507812 174.984375 209.132812 " fill-opacity="1" fill-rule="nonzero"/><path fill="#9d9ea4" d="M 187.5 249.398438 L 187.5 143.761719 C 187.5 138.273438 188.753906 134.148438 191.261719 131.402344 C 193.746094 128.6875 196.984375 127.300781 200.957031 127.300781 C 205.03125 127.300781 208.324219 128.660156 210.859375 131.378906 C 213.394531 134.09375 214.671875 138.222656 214.671875 143.761719 L 214.671875 249.398438 C 214.671875 254.9375 213.394531 259.089844 210.859375 261.808594 C 208.324219 264.550781 205.03125 265.933594 200.957031 265.933594 C 197.035156 265.933594 193.824219 264.550781 191.289062 261.78125 C 188.753906 259.011719 187.5 254.855469 187.5 249.398438 " fill-opacity="1" fill-rule="nonzero"/><path fill="#9d9ea4" d="M 308.472656 150.527344 L 254.988281 150.527344 L 254.988281 184.835938 L 299.691406 184.835938 C 303.847656 184.835938 306.929688 185.75 308.96875 187.605469 C 311.003906 189.460938 312.023438 191.941406 312.023438 195.078125 C 312.023438 198.1875 311.003906 200.640625 308.914062 202.472656 C 306.851562 204.300781 303.769531 205.214844 299.691406 205.214844 L 254.988281 205.214844 L 254.988281 249.398438 C 254.988281 254.988281 253.707031 259.167969 251.171875 261.859375 C 248.640625 264.578125 245.398438 265.933594 241.425781 265.933594 C 237.429688 265.933594 234.136719 264.550781 231.605469 261.808594 C 229.070312 259.089844 227.816406 254.9375 227.816406 249.398438 L 227.816406 146.246094 C 227.816406 142.324219 228.390625 139.136719 229.539062 136.679688 C 230.714844 134.199219 232.519531 132.398438 235 131.273438 C 237.457031 130.148438 240.617188 129.601562 244.457031 129.601562 L 308.472656 129.601562 C 312.808594 129.601562 316.023438 130.542969 318.113281 132.476562 C 320.230469 134.382812 321.273438 136.917969 321.273438 140 C 321.273438 143.1875 320.230469 145.722656 318.113281 147.65625 C 316.023438 149.5625 312.808594 150.527344 308.472656 150.527344 " fill-opacity="1" fill-rule="nonzero"/></svg>