<svg xmlns="http://www.w3.org/2000/svg" xmlns:xlink="http://www.w3.org/1999/xlink" width="500" zoomAndPan="magnify" viewBox="0 0 375 374.999991" height="500" preserveAspectRatio="xMidYMid meet" version="1.0"><defs><clipPath id="e40dbb959b"><path d="M 157 126 L 354.203125 126 L 354.203125 210 L 157 210 Z M 157 126 " clip-rule="nonzero"/></clipPath><clipPath id="7aaff5a1c8"><path d="M 20.453125 126 L 126 126 L 126 210 L 20.453125 210 Z M 20.453125 126 " clip-rule="nonzero"/></clipPath></defs><path fill="#9d9ea4" d="M 327.085938 245.113281 C 327.085938 237.9375 321.269531 232.121094 314.09375 232.121094 L 170.746094 232.121094 C 163.570312 232.121094 157.75 237.9375 157.75 245.113281 L 157.75 361.003906 C 157.75 368.179688 163.570312 373.996094 170.746094 373.996094 L 314.09375 373.996094 C 321.269531 373.996094 327.085938 368.179688 327.085938 361.003906 Z M 327.085938 245.113281 " fill-opacity="1" fill-rule="nonzero"/><g clip-path="url(#e40dbb959b)"><path fill="#9d9ea4" d="M 354.542969 139.851562 C 354.542969 132.675781 348.726562 126.859375 341.550781 126.859375 L 170.746094 126.859375 C 163.570312 126.859375 157.75 132.675781 157.75 139.851562 L 157.75 196.246094 C 157.75 203.421875 163.570312 209.238281 170.746094 209.238281 L 341.550781 209.238281 C 348.726562 209.238281 354.542969 203.421875 354.542969 196.246094 Z M 354.542969 139.851562 " fill-opacity="1" fill-rule="nonzero"/></g><path fill="#9d9ea4" d="M 125.714844 361.003906 C 125.714844 368.179688 119.898438 373.996094 112.722656 373.996094 L 60.90625 373.996094 C 53.730469 373.996094 47.914062 368.179688 47.914062 361.003906 L 47.914062 245.113281 C 47.914062 237.9375 53.730469 232.121094 60.90625 232.121094 L 112.722656 232.121094 C 119.898438 232.121094 125.714844 237.9375 125.714844 245.113281 Z M 125.714844 361.003906 " fill-opacity="1" fill-rule="nonzero"/><g clip-path="url(#7aaff5a1c8)"><path fill="#9d9ea4" d="M 125.714844 196.242188 C 125.714844 203.417969 119.898438 209.238281 112.722656 209.238281 L 33.449219 209.238281 C 26.269531 209.238281 20.453125 203.421875 20.453125 196.242188 L 20.453125 139.851562 C 20.453125 132.675781 26.269531 126.859375 33.449219 126.859375 L 112.722656 126.859375 C 119.898438 126.859375 125.714844 132.675781 125.714844 139.851562 Z M 125.714844 196.242188 " fill-opacity="1" fill-rule="nonzero"/></g><path fill="#9d9ea4" d="M 314.367188 22.097656 C 306.792969 8.976562 291.035156 1.148438 272.238281 1.148438 C 229.4375 1.148438 199.109375 40.195312 184.214844 64.84375 C 169.289062 40.222656 138.96875 1.394531 96.265625 1.394531 C 69.179688 1.394531 49.53125 17.691406 49.53125 39.800781 C 49.53125 79.011719 93.808594 104.59375 182.816406 104.59375 C 271.828125 104.59375 318.988281 71.707031 318.988281 40.125 C 318.980469 33.847656 317.601562 27.699219 314.367188 22.097656 Z M 95.796875 61.148438 C 80.835938 53.460938 75.511719 44.828125 75.511719 39.3125 C 75.511719 32.253906 84.234375 27.132812 96.261719 27.132812 C 125.230469 27.132812 148.15625 55.917969 160.613281 75.960938 C 127.238281 73.824219 107.210938 67.023438 95.796875 61.148438 Z M 290.980469 45.878906 C 283.441406 58.925781 257.761719 72.757812 208.015625 75.957031 C 220.574219 55.917969 243.605469 27.136719 272.234375 27.136719 C 283.316406 27.136719 289.636719 31.246094 291.859375 35.09375 C 293.628906 38.160156 293.332031 41.792969 290.980469 45.878906 Z M 290.980469 45.878906 " fill-opacity="1" fill-rule="nonzero"/></svg>