<svg xmlns="http://www.w3.org/2000/svg" xmlns:xlink="http://www.w3.org/1999/xlink" width="500" zoomAndPan="magnify" viewBox="0 0 375 374.999991" height="500" preserveAspectRatio="xMidYMid meet" version="1.0"><defs><clipPath id="6a52a46f7e"><path d="M 89 7 L 157 7 L 157 368.296875 L 89 368.296875 Z M 89 7 " clip-rule="nonzero"/></clipPath><clipPath id="a735608539"><path d="M 218 7 L 286 7 L 286 368.296875 L 218 368.296875 Z M 218 7 " clip-rule="nonzero"/></clipPath></defs><g clip-path="url(#6a52a46f7e)"><path fill="#9d9ea4" d="M 106.421875 368.222656 C 105.847656 368.222656 105.269531 368.191406 104.691406 368.132812 C 95.453125 367.1875 88.730469 358.929688 89.675781 349.691406 L 123.175781 22.738281 C 124.121094 13.5 132.34375 6.808594 141.609375 7.722656 C 150.847656 8.671875 157.574219 16.925781 156.625 26.164062 L 123.128906 353.121094 C 122.242188 361.773438 114.9375 368.222656 106.421875 368.222656 " fill-opacity="1" fill-rule="nonzero"/></g><g clip-path="url(#a735608539)"><path fill="#9d9ea4" d="M 235.058594 368.222656 C 234.484375 368.222656 233.90625 368.191406 233.328125 368.132812 C 224.089844 367.1875 217.363281 358.929688 218.3125 349.691406 L 251.808594 22.738281 C 252.757812 13.5 260.984375 6.808594 270.246094 7.722656 C 279.484375 8.671875 286.207031 16.925781 285.257812 26.164062 L 251.761719 353.121094 C 250.875 361.773438 243.574219 368.222656 235.058594 368.222656 " fill-opacity="1" fill-rule="nonzero"/></g><path fill="#9d9ea4" d="M 16.820312 269.375 C 7.566406 269.375 0.046875 261.890625 0.0078125 252.625 C -0.0234375 243.335938 7.472656 235.78125 16.757812 235.746094 L 345.425781 234.5 C 345.449219 234.5 345.472656 234.5 345.492188 234.5 C 354.746094 234.5 362.265625 241.984375 362.304688 251.25 C 362.335938 260.535156 354.839844 268.09375 345.554688 268.128906 L 16.890625 269.375 C 16.863281 269.375 16.839844 269.375 16.820312 269.375 " fill-opacity="1" fill-rule="nonzero"/><path fill="#9d9ea4" d="M 29.453125 141.359375 C 20.195312 141.359375 12.675781 133.871094 12.636719 124.609375 C 12.605469 115.320312 20.101562 107.765625 29.386719 107.730469 L 358.050781 106.480469 C 358.074219 106.480469 358.097656 106.480469 358.117188 106.480469 C 367.371094 106.480469 374.890625 113.96875 374.929688 123.230469 C 374.960938 132.519531 367.464844 140.078125 358.179688 140.109375 L 29.515625 141.359375 C 29.496094 141.359375 29.472656 141.359375 29.453125 141.359375 " fill-opacity="1" fill-rule="nonzero"/></svg>