<svg xmlns="http://www.w3.org/2000/svg" xmlns:xlink="http://www.w3.org/1999/xlink" width="500" zoomAndPan="magnify" viewBox="0 0 375 374.999991" height="500" preserveAspectRatio="xMidYMid meet" version="1.0"><path fill="#9d9ea4" d="M 137.636719 230.976562 L 137.636719 332.609375 C 137.636719 356.023438 118.75 375 95.472656 375 C 72.191406 375 53.304688 356.023438 53.304688 332.609375 L 53.304688 230.976562 C 53.304688 207.5625 72.191406 188.585938 95.472656 188.585938 C 118.75 188.585938 137.636719 207.5625 137.636719 230.976562 Z M 279.527344 188.585938 C 256.25 188.585938 237.363281 207.5625 237.363281 230.976562 L 237.363281 332.609375 C 237.363281 356.023438 256.25 375 279.527344 375 C 302.808594 375 321.695312 356.023438 321.695312 332.609375 L 321.695312 230.976562 C 321.695312 207.5625 302.808594 188.585938 279.527344 188.585938 Z M 187.5 0 C 83.96875 0 0 84.421875 0 188.585938 L 0 282.472656 L 0.046875 282.472656 C 0.363281 304.121094 16.257812 321.964844 36.957031 325.179688 C 38.632812 325.453125 40.351562 324.953125 41.667969 323.824219 C 42.980469 322.691406 43.703125 321.058594 43.703125 319.382812 L 43.703125 244.203125 C 43.703125 242.480469 42.980469 240.851562 41.667969 239.765625 C 40.351562 238.632812 38.675781 238.132812 37 238.40625 C 32.878906 239.039062 28.894531 240.308594 25.226562 242.027344 L 25.226562 188.585938 C 25.179688 98.550781 98.007812 25.316406 187.5 25.316406 C 276.992188 25.316406 349.820312 98.550781 349.820312 188.585938 L 349.820312 242.027344 C 346.148438 240.308594 342.210938 239.039062 338.042969 238.40625 C 336.367188 238.132812 334.648438 238.632812 333.332031 239.765625 C 332.066406 240.898438 331.296875 242.527344 331.296875 244.203125 L 331.296875 319.382812 C 331.296875 321.105469 332.019531 322.734375 333.332031 323.824219 C 334.648438 324.953125 336.324219 325.40625 338.042969 325.179688 C 358.742188 321.964844 374.59375 304.121094 374.953125 282.472656 L 375 282.472656 L 375 188.585938 C 375 84.421875 291.03125 0 187.5 0 Z M 187.5 0 " fill-opacity="1" fill-rule="nonzero"/></svg>