<svg xmlns="http://www.w3.org/2000/svg" xmlns:xlink="http://www.w3.org/1999/xlink" width="500" zoomAndPan="magnify" viewBox="0 0 375 374.999991" height="500" preserveAspectRatio="xMidYMid meet" version="1.0"><path fill="#9d9ea4" d="M 54.410156 55.246094 C 91.238281 18.414062 135.601562 0 187.5 0 C 239.398438 0 283.621094 18.277344 320.171875 54.828125 C 356.722656 91.378906 375 135.601562 375 187.5 C 375 239.398438 356.722656 283.621094 320.171875 320.171875 C 283.621094 356.722656 239.398438 375 187.5 375 C 135.601562 375 91.378906 356.722656 54.828125 320.171875 C 18.277344 283.621094 0 239.398438 0 187.5 C 0 135.601562 18.136719 91.519531 54.410156 55.246094 Z M 204.242188 273.714844 C 204.800781 266.460938 202.707031 260.324219 197.964844 255.300781 C 193.21875 250.277344 187.222656 247.769531 179.964844 247.769531 C 173.269531 247.769531 167.410156 250 162.386719 254.464844 C 157.367188 258.929688 154.855469 264.789062 154.855469 272.042969 C 154.855469 279.296875 157.085938 285.296875 161.550781 290.039062 C 166.015625 294.78125 171.597656 297.152344 178.292969 297.152344 C 185.546875 297.152344 191.683594 295.0625 196.707031 290.875 C 201.730469 286.691406 204.242188 280.972656 204.242188 273.714844 Z M 245.257812 166.574219 C 251.953125 157.085938 255.300781 147.042969 255.300781 136.441406 C 255.300781 118.023438 248.324219 103.515625 234.375 92.914062 C 220.980469 82.867188 203.683594 77.847656 182.476562 77.847656 C 166.851562 77.847656 153.738281 81.472656 143.136719 88.726562 C 127.511719 99.332031 119.699219 118.304688 119.699219 145.648438 L 160.714844 145.648438 C 160.714844 133.929688 161.832031 126.394531 164.0625 123.046875 C 169.085938 114.675781 176.339844 110.492188 185.824219 110.492188 C 195.3125 110.492188 202.289062 113.558594 206.753906 119.699219 C 211.214844 125.835938 213.449219 132.253906 213.449219 138.949219 C 213.449219 143.414062 211.214844 148.996094 206.753906 155.691406 C 205.636719 157.925781 202.847656 160.714844 198.382812 164.0625 C 183.871094 172.433594 174.105469 180.804688 169.085938 189.175781 C 164.621094 196.429688 161.832031 207.867188 160.714844 223.492188 C 160.714844 225.726562 161.832031 226.839844 164.0625 226.839844 L 196.707031 226.839844 C 199.496094 226.839844 200.894531 225.726562 200.894531 223.492188 C 200.894531 217.355469 201.449219 212.054688 202.566406 207.589844 C 204.242188 202.566406 207.589844 197.824219 212.613281 193.359375 L 224.332031 185.824219 C 234.933594 178.011719 241.910156 171.597656 245.257812 166.574219 Z M 245.257812 166.574219 " fill-opacity="1" fill-rule="nonzero"/></svg>