<svg xmlns="http://www.w3.org/2000/svg" xmlns:xlink="http://www.w3.org/1999/xlink" width="500" zoomAndPan="magnify" viewBox="0 0 375 374.999991" height="500" preserveAspectRatio="xMidYMid meet" version="1.0"><defs><clipPath id="1860dc8f06"><path d="M 0 52.03125 L 375 52.03125 L 375 375 L 0 375 Z M 0 52.03125 " clip-rule="nonzero"/></clipPath></defs><g clip-path="url(#1860dc8f06)"><path fill="#9d9ea4" d="M 374.882812 260.28125 C 374.882812 259.902344 374.800781 259.484375 374.714844 259.101562 C 374.714844 258.976562 374.714844 258.851562 374.714844 258.722656 C 374.757812 257.082031 374.589844 255.441406 374.125 253.753906 C 372.441406 247.480469 370.757812 241.164062 369.074219 234.886719 C 365.070312 219.855469 361.027344 204.820312 357.027344 189.785156 C 352.144531 171.550781 347.257812 153.3125 342.414062 135.035156 C 338.203125 119.328125 334.035156 103.621094 329.824219 87.910156 C 327.800781 80.289062 325.949219 72.539062 323.675781 64.960938 C 323.632812 64.832031 323.632812 64.707031 323.589844 64.625 C 321.695312 57.464844 314.703125 52.242188 307.335938 52.242188 L 97.820312 52.242188 C 88.132812 52.242188 78.40625 52.03125 68.71875 52.242188 C 68.59375 52.242188 68.425781 52.242188 68.296875 52.242188 C 60.929688 52.242188 53.980469 57.464844 52.042969 64.625 L 46.988281 83.488281 C 42.988281 98.523438 38.945312 113.558594 34.945312 128.59375 C 30.058594 146.828125 25.171875 165.0625 20.332031 183.339844 C 16.117188 199.050781 11.949219 214.757812 7.738281 230.464844 C 5.71875 238.132812 3.527344 245.753906 1.589844 253.417969 C 1.546875 253.542969 1.546875 253.628906 1.503906 253.753906 C 1.042969 255.480469 0.875 257.335938 0.957031 259.1875 C 0.875 260.535156 0.875 261.882812 0.875 263.273438 L 0.875 346.40625 C 0.875 353.058594 0.117188 360.300781 3.992188 366.113281 C 7.738281 371.671875 13.71875 374.789062 20.414062 374.914062 C 21.089844 374.914062 21.761719 374.914062 22.4375 374.914062 L 334.75 374.914062 C 341.574219 374.914062 348.394531 375 355.175781 374.914062 C 360.4375 374.875 365.660156 372.9375 369.367188 369.0625 C 373.199219 365.019531 374.84375 359.921875 374.84375 354.449219 L 374.84375 260.703125 C 374.882812 260.578125 374.882812 260.410156 374.882812 260.28125 Z M 269.179688 241.332031 C 267.914062 241.332031 266.609375 241.332031 265.347656 241.332031 C 254.566406 241.585938 246.226562 250.050781 246.015625 260.832031 C 245.933594 265.210938 246.015625 269.632812 246.015625 274.011719 C 246.015625 274.476562 246.015625 274.980469 246.015625 275.445312 C 246.015625 275.90625 245.976562 276.414062 245.976562 276.917969 C 245.933594 278.644531 246.015625 276.328125 246.101562 276.414062 C 246.394531 276.707031 245.511719 279.316406 245.386719 279.738281 C 245.257812 280.117188 245.175781 280.453125 245.046875 280.792969 C 245.007812 280.960938 244.921875 281.128906 244.835938 281.296875 C 244.796875 281.421875 244.753906 281.550781 244.710938 281.632812 C 244.375 282.222656 243.953125 282.941406 243.867188 283.023438 C 243.699219 283.320312 242.816406 285.085938 242.480469 285.085938 C 242.691406 284.792969 242.898438 284.539062 243.109375 284.246094 C 242.898438 284.539062 242.648438 284.792969 242.394531 285.085938 C 242.015625 285.507812 241.636719 285.886719 241.257812 286.265625 C 241.003906 286.519531 240.710938 286.773438 240.457031 287.023438 C 240.332031 287.152344 240.164062 287.277344 240.035156 287.402344 C 239.320312 287.992188 239.488281 287.867188 240.457031 287.109375 C 240.457031 287.445312 238.6875 288.332031 238.394531 288.5 C 238.269531 288.582031 237.550781 289.003906 237.003906 289.339844 C 237.089844 289.300781 237.128906 289.300781 237.214844 289.257812 C 237.128906 289.300781 237.046875 289.300781 237.003906 289.339844 C 237.003906 289.339844 237.003906 289.339844 237.046875 289.339844 C 236.75 289.46875 236.5 289.550781 236.203125 289.636719 C 235.65625 289.804688 235.152344 289.972656 234.605469 290.140625 C 234.351562 290.226562 233.636719 290.4375 233.003906 290.605469 C 233.003906 290.605469 232.835938 290.605469 232.371094 290.605469 C 231.867188 290.605469 231.402344 290.648438 230.898438 290.648438 C 230.6875 290.648438 230.519531 290.648438 230.351562 290.648438 C 228.414062 290.648438 226.433594 290.648438 224.453125 290.648438 L 197.417969 290.648438 C 180.152344 290.648438 162.925781 290.6875 145.703125 290.648438 C 145.324219 290.648438 144.398438 290.6875 143.679688 290.648438 C 143.679688 290.648438 143.679688 290.605469 143.640625 290.605469 L 143.679688 290.605469 C 143.640625 290.605469 143.511719 290.605469 143.21875 290.5625 C 142.671875 290.4375 142.121094 290.351562 141.53125 290.226562 C 140.734375 290.015625 139.933594 289.636719 139.132812 289.507812 C 139.21875 289.550781 139.257812 289.59375 139.34375 289.636719 C 140.945312 290.476562 137.996094 289.339844 139.132812 289.550781 C 138.878906 289.425781 138.585938 289.300781 138.332031 289.171875 C 138.207031 289.089844 136.984375 288.457031 136.183594 287.992188 C 136.140625 287.953125 136.058594 287.867188 135.933594 287.742188 C 135.511719 287.363281 135.089844 287.023438 134.710938 286.644531 C 134.121094 286.054688 133.574219 285.464844 133.027344 284.835938 C 132.984375 284.792969 132.984375 284.792969 132.941406 284.75 C 133.027344 284.878906 133.109375 285.003906 133.109375 285.003906 C 132.941406 284.917969 131.972656 283.699219 132.898438 284.707031 C 132.730469 284.457031 132.480469 284.078125 132.480469 284.078125 C 131.890625 283.148438 131.382812 282.183594 130.878906 281.171875 C 130.878906 281.171875 130.878906 281.128906 130.835938 281.128906 C 130.753906 280.792969 130.625 280.414062 130.625 280.328125 C 130.371094 279.527344 130.164062 278.6875 129.992188 277.84375 C 129.953125 277.675781 129.953125 277.507812 129.910156 277.339844 C 129.910156 277.378906 129.910156 277.464844 129.910156 277.507812 C 129.867188 277.128906 129.824219 276.832031 129.785156 276.75 C 129.785156 276.832031 129.824219 277 129.867188 277.296875 L 129.867188 277.339844 C 129.867188 277 129.824219 276.621094 129.824219 276.621094 C 129.785156 276.160156 129.785156 275.695312 129.785156 275.191406 C 129.742188 270.726562 129.785156 266.261719 129.785156 261.796875 C 129.785156 252.785156 124.6875 244.660156 115.757812 242.046875 C 113.105469 241.289062 110.496094 241.289062 107.800781 241.289062 L 68.71875 241.289062 C 59.074219 241.289062 49.429688 241.207031 39.746094 241.207031 C 43.535156 227.011719 47.324219 212.863281 51.117188 198.710938 C 56 180.476562 60.84375 162.242188 65.730469 144.007812 C 69.941406 128.296875 74.109375 112.546875 78.320312 96.839844 C 79.289062 93.21875 80.300781 89.722656 81.3125 85.933594 L 277.898438 85.933594 C 283.414062 85.933594 288.929688 86.015625 294.488281 86.015625 C 295.078125 88.164062 295.625 90.3125 296.214844 92.460938 C 300.21875 107.496094 304.257812 122.527344 308.261719 137.5625 C 313.144531 155.800781 318.03125 174.035156 322.875 192.3125 C 327.085938 208.019531 331.253906 223.726562 335.464844 239.4375 C 335.632812 240.066406 335.804688 240.953125 335.972656 241.375 L 269.179688 241.375 Z M 269.179688 241.332031 " fill-opacity="1" fill-rule="nonzero"/></g></svg>