<svg xmlns="http://www.w3.org/2000/svg" xmlns:xlink="http://www.w3.org/1999/xlink" width="500" zoomAndPan="magnify" viewBox="0 0 375 374.999991" height="500" preserveAspectRatio="xMidYMid meet" version="1.0"><defs><clipPath id="3401703ebc"><path d="M 165 0 L 354.195312 0 L 354.195312 322 L 165 322 Z M 165 0 " clip-rule="nonzero"/></clipPath></defs><g clip-path="url(#3401703ebc)"><path fill="#9d9ea4" d="M 227.882812 0 C 223.136719 1.085938 218.292969 1.878906 213.546875 3.164062 C 193.574219 8.898438 177.757812 20.367188 165.496094 37.46875 C 203.265625 49.433594 228.96875 73.65625 239.648438 111.917969 C 250.523438 151.066406 238.363281 184.089844 209.988281 212.167969 C 249.632812 237.871094 275.4375 271.488281 273.0625 321.511719 C 274.449219 321.613281 275.535156 321.808594 276.621094 321.808594 C 289.375 321.808594 302.128906 321.910156 314.984375 321.808594 C 334.953125 321.710938 349.882812 308.957031 353.34375 289.28125 C 353.441406 288.394531 353.738281 287.601562 354.035156 286.8125 L 354.035156 253.394531 C 353.835938 252.40625 353.441406 251.417969 353.34375 250.429688 C 352.253906 238.664062 348.5 227.6875 342.566406 217.605469 C 327.636719 192.394531 305.492188 175.980469 278.699219 165.304688 C 276.917969 164.613281 275.140625 163.921875 274.152344 163.523438 C 282.652344 156.40625 291.75 149.882812 299.558594 142.070312 C 314.289062 127.242188 323.683594 109.246094 324.078125 87.695312 C 324.871094 48.34375 297.582031 12.753906 259.417969 2.964844 C 255.070312 1.878906 250.621094 0.988281 246.171875 0 Z M 227.882812 0 " fill-opacity="1" fill-rule="nonzero"/></g><path fill="#9d9ea4" d="M 173.902344 216.320312 C 179.734375 212.066406 185.765625 208.210938 191.203125 203.566406 C 207.417969 189.824219 219.675781 173.214844 223.234375 151.761719 C 227.289062 127.339844 221.058594 105.09375 205.4375 86.113281 C 183.09375 58.824219 153.730469 47.753906 119.226562 55.265625 C 82.84375 63.175781 60.304688 86.804688 52.195312 123.1875 C 45.96875 150.96875 55.160156 174.695312 74.34375 194.667969 C 81.558594 202.082031 90.457031 207.914062 98.664062 214.441406 C 99.453125 215.035156 100.246094 215.527344 101.53125 216.320312 C 96.882812 218.296875 92.535156 219.878906 88.382812 221.855469 C 63.070312 233.71875 42.410156 250.625 29.457031 275.9375 C 24.019531 286.515625 20.953125 297.785156 21.351562 309.847656 C 21.644531 319.4375 21.449219 329.027344 21.449219 338.714844 C 21.449219 355.820312 34.105469 371.144531 50.910156 374.308594 C 53.480469 374.800781 56.152344 375 58.820312 375 L 216.3125 375 C 236.285156 375 253.191406 359.675781 253.785156 339.703125 C 254.179688 325.46875 254.476562 311.035156 252.402344 296.996094 C 249.136719 275.144531 236.382812 258.042969 220.171875 243.507812 C 207.515625 232.136719 192.980469 223.832031 177.0625 217.902344 C 176.074219 217.507812 175.1875 217.210938 174.296875 216.8125 C 174 216.714844 173.902344 216.417969 173.902344 216.320312 Z M 173.902344 216.320312 " fill-opacity="1" fill-rule="nonzero"/></svg>