<svg xmlns="http://www.w3.org/2000/svg" xmlns:xlink="http://www.w3.org/1999/xlink" width="500" zoomAndPan="magnify" viewBox="0 0 375 374.999991" height="500" preserveAspectRatio="xMidYMid meet" version="1.0"><defs><clipPath id="9c6e8dddd0"><path d="M 6 10.3125 L 371 10.3125 L 371 363 L 6 363 Z M 6 10.3125 " clip-rule="nonzero"/></clipPath></defs><g clip-path="url(#9c6e8dddd0)"><path fill="#9d9ea4" d="M 188.410156 11.210938 C 188.363281 10.921875 188.3125 10.613281 188.253906 10.3125 C 174.929688 11.925781 161.421875 12.671875 148.296875 15.289062 C 103.871094 24.128906 66.242188 45.089844 38.191406 81.175781 C 9.722656 117.808594 -0.109375 159.210938 10.148438 204.710938 C 17.183594 235.902344 33.671875 261.804688 57.207031 283.199219 C 60.527344 286.210938 60.960938 288.898438 59.789062 292.898438 C 55.140625 308.648438 45.628906 321.074219 33.707031 331.917969 C 26.679688 338.296875 19.300781 344.328125 12.550781 350.976562 C 7.089844 356.371094 7.984375 358.746094 15.257812 360.5625 C 31.796875 364.679688 48.230469 362.691406 64.542969 359.308594 C 93.03125 353.425781 119.90625 342.820312 146.265625 330.777344 C 148.398438 329.792969 151.164062 329.308594 153.457031 329.691406 C 179.601562 334.019531 205.679688 333.714844 231.53125 327.953125 C 277.328125 317.730469 315.441406 295.113281 342.898438 256.441406 C 366.011719 223.914062 374.738281 187.546875 368.167969 148.117188 C 361.542969 108.484375 340.835938 76.933594 309.605469 52.269531 C 274.140625 24.300781 233.261719 11.703125 188.410156 11.210938 Z M 188.410156 11.210938 " fill-opacity="1" fill-rule="nonzero"/><path fill="#9d9ea4" d="M 368.148438 148.128906 C 374.738281 187.558594 366.007812 223.9375 342.878906 256.457031 C 315.425781 295.105469 277.3125 317.742188 231.542969 327.949219 C 205.695312 333.710938 179.601562 334.035156 153.464844 329.71875 C 151.160156 329.308594 148.402344 329.804688 146.261719 330.792969 C 119.921875 342.851562 93.046875 353.429688 64.523438 359.316406 C 48.222656 362.691406 31.800781 364.707031 15.253906 360.59375 C 7.96875 358.738281 7.105469 356.394531 12.539062 351.003906 C 19.289062 344.335938 26.65625 338.324219 33.695312 331.945312 C 45.628906 321.078125 55.136719 308.648438 59.789062 292.933594 C 60.941406 288.898438 60.53125 286.222656 57.195312 283.21875 C 33.652344 261.816406 17.191406 235.925781 10.152344 204.730469 C -0.0976562 159.207031 9.742188 117.800781 38.179688 81.171875 C 66.25 45.117188 103.871094 24.125 148.28125 15.316406 C 161.410156 12.683594 174.910156 11.941406 188.246094 10.335938 C 188.332031 10.625 188.367188 10.914062 188.410156 11.203125 C 233.273438 11.695312 274.144531 24.332031 309.621094 52.277344 C 340.824219 76.921875 361.527344 108.492188 368.148438 148.128906 Z M 368.148438 148.128906 " fill-opacity="1" fill-rule="nonzero"/></g></svg>