<svg xmlns="http://www.w3.org/2000/svg" xmlns:xlink="http://www.w3.org/1999/xlink" width="500" zoomAndPan="magnify" viewBox="0 0 375 374.999991" height="500" preserveAspectRatio="xMidYMid meet" version="1.0"><path fill="#9d9ea4" d="M 257.207031 133.539062 C 257.207031 152.714844 257.472656 171.886719 257.207031 191.058594 C 257.058594 193.285156 256.808594 195.503906 256.449219 197.707031 C 256.09375 199.910156 255.636719 202.09375 255.074219 204.253906 C 254.511719 206.414062 253.851562 208.546875 253.089844 210.644531 C 252.328125 212.742188 251.46875 214.800781 250.511719 216.820312 C 249.558594 218.835938 248.507812 220.804688 247.367188 222.722656 C 246.226562 224.644531 245 226.503906 243.683594 228.308594 C 242.367188 230.113281 240.96875 231.851562 239.488281 233.523438 C 238.007812 235.195312 236.453125 236.792969 234.824219 238.316406 C 233.195312 239.84375 231.496094 241.289062 229.730469 242.65625 C 227.964844 244.023438 226.136719 245.300781 224.25 246.496094 C 222.363281 247.691406 220.425781 248.792969 218.433594 249.804688 C 216.445312 250.816406 214.410156 251.730469 212.332031 252.550781 C 210.257812 253.371094 208.148438 254.09375 206.003906 254.714844 C 203.859375 255.335938 201.6875 255.855469 199.496094 256.273438 C 197.300781 256.691406 195.09375 257.003906 192.871094 257.214844 C 190.648438 257.421875 188.421875 257.527344 186.1875 257.527344 C 183.953125 257.527344 181.726562 257.421875 179.503906 257.214844 C 177.28125 257.003906 175.074219 256.691406 172.878906 256.273438 C 170.6875 255.855469 168.519531 255.335938 166.375 254.714844 C 164.230469 254.09375 162.117188 253.371094 160.042969 252.550781 C 157.964844 251.730469 155.929688 250.816406 153.941406 249.804688 C 151.949219 248.792969 150.011719 247.691406 148.125 246.496094 C 146.238281 245.300781 144.414062 244.023438 142.644531 242.65625 C 140.878906 241.289062 139.183594 239.84375 137.550781 238.316406 C 135.921875 236.792969 134.367188 235.195312 132.886719 233.523438 C 131.40625 231.851562 130.007812 230.113281 128.695312 228.308594 C 127.378906 226.503906 126.148438 224.644531 125.007812 222.722656 C 123.867188 220.804688 122.820312 218.835938 121.863281 216.820312 C 120.90625 214.800781 120.046875 212.742188 119.285156 210.644531 C 118.523438 208.546875 117.863281 206.414062 117.300781 204.253906 C 116.738281 202.09375 116.28125 199.910156 115.925781 197.707031 C 115.570312 195.503906 115.316406 193.285156 115.167969 191.058594 C 114.785156 152.507812 114.785156 113.847656 115.167969 75.089844 C 115.21875 73.226562 115.339844 71.371094 115.53125 69.515625 C 115.726562 67.664062 115.992188 65.820312 116.332031 63.988281 C 116.667969 62.15625 117.078125 60.339844 117.558594 58.542969 C 118.042969 56.742188 118.59375 54.964844 119.210938 53.207031 C 119.832031 51.453125 120.523438 49.722656 121.277344 48.019531 C 122.035156 46.316406 122.859375 44.648438 123.746094 43.007812 C 124.632812 41.371094 125.582031 39.769531 126.597656 38.207031 C 127.609375 36.644531 128.683594 35.125 129.816406 33.644531 C 130.949219 32.164062 132.136719 30.734375 133.382812 29.347656 C 134.628906 27.960938 135.925781 26.628906 137.277344 25.34375 C 138.625 24.0625 140.023438 22.832031 141.46875 21.65625 C 142.917969 20.484375 144.40625 19.367188 145.941406 18.3125 C 147.476562 17.253906 149.050781 16.261719 150.660156 15.328125 C 152.273438 14.394531 153.917969 13.523438 155.601562 12.71875 C 157.28125 11.917969 158.988281 11.179688 160.726562 10.507812 C 162.464844 9.839844 164.226562 9.238281 166.015625 8.707031 C 167.800781 8.175781 169.601562 7.714844 171.425781 7.324219 C 173.246094 6.9375 175.082031 6.617188 176.925781 6.371094 C 178.773438 6.125 180.628906 5.953125 182.488281 5.851562 C 184.347656 5.753906 186.207031 5.726562 188.070312 5.769531 C 189.933594 5.816406 191.789062 5.9375 193.644531 6.128906 C 195.496094 6.320312 197.339844 6.582031 199.171875 6.917969 C 201.003906 7.257812 202.820312 7.664062 204.621094 8.144531 C 206.421875 8.621094 208.199219 9.171875 209.957031 9.789062 C 211.714844 10.40625 213.445312 11.09375 215.148438 11.847656 C 216.851562 12.605469 218.523438 13.421875 220.160156 14.308594 C 221.800781 15.195312 223.402344 16.144531 224.964844 17.15625 C 226.53125 18.167969 228.050781 19.238281 229.53125 20.371094 C 231.011719 21.5 232.445312 22.6875 233.832031 23.929688 C 235.21875 25.175781 236.554688 26.472656 237.839844 27.820312 C 239.128906 29.167969 240.355469 30.566406 241.53125 32.011719 C 242.707031 33.453125 243.824219 34.945312 244.882812 36.476562 C 246.890625 39.347656 248.667969 42.355469 250.210938 45.5 C 251.757812 48.644531 253.054688 51.886719 254.101562 55.230469 C 255.152344 58.574219 255.941406 61.976562 256.46875 65.441406 C 256.996094 68.902344 257.257812 72.386719 257.25 75.890625 C 257.25 95.195312 257.207031 114.367188 257.207031 133.539062 Z M 257.207031 133.539062 " fill-opacity="1" fill-rule="nonzero"/><path fill="#9d9ea4" d="M 200.84375 316.992188 L 200.84375 345.019531 C 203.175781 345.390625 205.519531 345.644531 207.875 345.773438 C 222.199219 345.773438 236.476562 345.773438 250.800781 345.773438 C 253.792969 345.6875 256.757812 345.925781 259.699219 346.484375 C 260.550781 346.628906 261.382812 346.851562 262.191406 347.144531 C 263.003906 347.441406 263.785156 347.808594 264.527344 348.242188 C 265.273438 348.679688 265.972656 349.179688 266.628906 349.746094 C 267.285156 350.308594 267.882812 350.925781 268.425781 351.597656 C 268.964844 352.269531 269.445312 352.988281 269.855469 353.746094 C 270.269531 354.503906 270.609375 355.296875 270.878906 356.117188 C 271.148438 356.9375 271.339844 357.777344 271.457031 358.632812 C 271.574219 359.488281 271.613281 360.347656 271.574219 361.210938 C 271.492188 362.0625 271.339844 362.898438 271.113281 363.722656 C 270.890625 364.546875 270.59375 365.347656 270.230469 366.117188 C 269.867188 366.890625 269.4375 367.628906 268.945312 368.328125 C 268.453125 369.027344 267.90625 369.679688 267.300781 370.28125 C 266.699219 370.886719 266.046875 371.433594 265.347656 371.925781 C 264.648438 372.417969 263.910156 372.847656 263.136719 373.210938 C 262.367188 373.574219 261.566406 373.871094 260.742188 374.09375 C 259.917969 374.320312 259.082031 374.472656 258.230469 374.554688 C 256.09375 374.6875 253.960938 374.6875 251.824219 374.554688 C 208.140625 374.554688 164.308594 374.554688 120.328125 374.554688 C 117.898438 374.753906 115.464844 374.753906 113.035156 374.554688 C 112.238281 374.410156 111.457031 374.203125 110.695312 373.933594 C 109.933594 373.660156 109.199219 373.328125 108.492188 372.9375 C 107.785156 372.542969 107.113281 372.097656 106.480469 371.59375 C 105.847656 371.089844 105.257812 370.539062 104.714844 369.941406 C 104.171875 369.339844 103.679688 368.703125 103.242188 368.023438 C 102.804688 367.339844 102.421875 366.628906 102.101562 365.886719 C 101.78125 365.144531 101.523438 364.382812 101.324219 363.597656 C 101.128906 362.8125 101 362.015625 100.933594 361.210938 C 100.886719 360.371094 100.914062 359.539062 101.015625 358.703125 C 101.117188 357.871094 101.292969 357.054688 101.539062 356.253906 C 101.785156 355.453125 102.101562 354.679688 102.484375 353.933594 C 102.871094 353.1875 103.316406 352.480469 103.828125 351.816406 C 104.335938 351.148438 104.902344 350.535156 105.523438 349.96875 C 106.140625 349.402344 106.804688 348.898438 107.515625 348.449219 C 108.226562 348.003906 108.96875 347.621094 109.746094 347.304688 C 110.523438 346.992188 111.324219 346.746094 112.144531 346.574219 C 115.078125 345.957031 118.042969 345.691406 121.039062 345.773438 C 134.386719 345.773438 147.730469 345.773438 161.078125 345.773438 L 170.683594 345.773438 L 170.683594 317.527344 C 162.542969 315.480469 154.449219 314.101562 146.753906 311.433594 C 101.46875 295.773438 73 264.191406 61.253906 217.527344 C 59.753906 211.296875 58.925781 204.980469 58.761719 198.578125 C 58.273438 186.386719 58.230469 174.199219 58.453125 162.011719 C 58.4375 161.082031 58.511719 160.160156 58.679688 159.246094 C 58.847656 158.332031 59.101562 157.445312 59.445312 156.582031 C 59.785156 155.714844 60.207031 154.894531 60.710938 154.113281 C 61.214844 153.332031 61.792969 152.609375 62.4375 151.941406 C 63.085938 151.277344 63.789062 150.679688 64.554688 150.148438 C 65.316406 149.621094 66.125 149.171875 66.980469 148.804688 C 67.832031 148.433594 68.710938 148.152344 69.621094 147.957031 C 70.527344 147.761719 71.445312 147.65625 72.375 147.640625 C 73.304688 147.628906 74.226562 147.703125 75.140625 147.871094 C 76.054688 148.039062 76.941406 148.292969 77.804688 148.632812 C 78.667969 148.976562 79.492188 149.398438 80.273438 149.902344 C 81.050781 150.40625 81.777344 150.980469 82.441406 151.628906 C 83.109375 152.273438 83.707031 152.980469 84.234375 153.746094 C 84.765625 154.507812 85.214844 155.316406 85.582031 156.167969 C 85.949219 157.023438 86.234375 157.902344 86.429688 158.808594 C 86.625 159.71875 86.730469 160.636719 86.742188 161.566406 C 87.277344 171.886719 86.742188 182.25 87.054688 192.703125 C 87.988281 230.027344 105.917969 257.382812 137.1875 276.421875 C 139.566406 277.785156 141.992188 279.042969 144.476562 280.203125 C 146.957031 281.359375 149.480469 282.414062 152.050781 283.363281 C 154.621094 284.308594 157.226562 285.148438 159.863281 285.878906 C 162.503906 286.609375 165.167969 287.230469 167.859375 287.738281 C 170.550781 288.246094 173.257812 288.644531 175.980469 288.925781 C 178.707031 289.210938 181.4375 289.378906 184.175781 289.433594 C 186.914062 289.488281 189.648438 289.429688 192.382812 289.257812 C 195.113281 289.082031 197.835938 288.796875 200.546875 288.398438 C 203.253906 287.996094 205.941406 287.484375 208.609375 286.863281 C 211.273438 286.238281 213.910156 285.503906 216.515625 284.660156 C 219.121094 283.816406 221.6875 282.863281 224.214844 281.808594 C 226.738281 280.75 229.21875 279.589844 231.644531 278.324219 C 234.074219 277.058594 236.449219 275.695312 238.761719 274.234375 C 241.078125 272.773438 243.328125 271.214844 245.515625 269.566406 C 247.703125 267.917969 249.816406 266.179688 251.855469 264.351562 C 253.898438 262.527344 255.859375 260.621094 257.738281 258.628906 C 259.910156 256.433594 261.964844 254.136719 263.910156 251.742188 C 265.859375 249.347656 267.683594 246.863281 269.386719 244.289062 C 271.089844 241.714844 272.667969 239.066406 274.113281 236.339844 C 275.558594 233.613281 276.871094 230.824219 278.046875 227.96875 C 279.222656 225.117188 280.257812 222.210938 281.152344 219.257812 C 282.042969 216.304688 282.792969 213.3125 283.394531 210.285156 C 284 207.261719 284.453125 204.210938 284.761719 201.140625 C 285.066406 198.070312 285.222656 194.992188 285.230469 191.902344 C 285.230469 183.40625 285.230469 174.867188 285.230469 166.324219 C 285.148438 163.890625 285.3125 161.476562 285.71875 159.074219 C 285.878906 158.257812 286.109375 157.457031 286.414062 156.679688 C 286.714844 155.902344 287.082031 155.160156 287.515625 154.445312 C 287.949219 153.734375 288.441406 153.066406 288.992188 152.441406 C 289.546875 151.816406 290.148438 151.246094 290.800781 150.726562 C 291.453125 150.210938 292.148438 149.753906 292.882812 149.359375 C 293.617188 148.964844 294.382812 148.636719 295.171875 148.375 C 295.964844 148.117188 296.773438 147.929688 297.601562 147.8125 C 298.425781 147.699219 299.253906 147.65625 300.089844 147.6875 C 300.929688 147.683594 301.761719 147.761719 302.585938 147.917969 C 303.414062 148.074219 304.214844 148.304688 305 148.609375 C 305.78125 148.917969 306.527344 149.296875 307.238281 149.742188 C 307.949219 150.191406 308.609375 150.703125 309.222656 151.277344 C 309.839844 151.847656 310.394531 152.476562 310.890625 153.152344 C 311.386719 153.832031 311.8125 154.550781 312.175781 155.308594 C 312.535156 156.066406 312.820312 156.851562 313.03125 157.664062 C 313.246094 158.480469 313.378906 159.304688 313.433594 160.140625 C 316.949219 207.207031 309.476562 250.667969 272.199219 284.339844 C 267.609375 288.574219 262.730469 292.441406 257.566406 295.949219 C 252.402344 299.453125 247.003906 302.558594 241.378906 305.261719 C 235.75 307.960938 229.953125 310.234375 223.988281 312.074219 C 218.023438 313.914062 211.953125 315.300781 205.78125 316.238281 C 204.492188 316.28125 203.023438 316.726562 200.84375 316.992188 Z M 200.84375 316.992188 " fill-opacity="1" fill-rule="nonzero"/></svg>