<svg xmlns="http://www.w3.org/2000/svg" xmlns:xlink="http://www.w3.org/1999/xlink" width="500" zoomAndPan="magnify" viewBox="0 0 375 374.999991" height="500" preserveAspectRatio="xMidYMid meet" version="1.0"><path fill="#9d9ea4" d="M 195.460938 3.828125 C 158.925781 0.078125 125.300781 27.292969 125.554688 64.824219 C 125.554688 64.824219 125.554688 179.019531 125.554688 179.019531 C 125.554688 185.949219 126.792969 192.632812 129.019531 198.816406 C 129.019531 198.816406 239.707031 88.128906 256.457031 71.382812 C 259.460938 35.574219 231.84375 3.628906 195.460938 3.828125 Z M 195.460938 3.828125 " fill-opacity="1" fill-rule="nonzero"/><path fill="#9d9ea4" d="M 186.550781 240.015625 C 223.085938 243.777344 256.710938 216.542969 256.457031 179.019531 C 256.457031 179.019531 256.457031 141.410156 256.457031 141.410156 L 322.277344 75.589844 C 327.101562 70.761719 327.101562 62.96875 322.277344 58.144531 C 317.453125 53.316406 309.65625 53.316406 304.707031 58.144531 C 293.628906 69.253906 80.835938 281.964844 59.734375 303.117188 C 48.542969 314.734375 65.472656 331.941406 77.304688 320.683594 C 77.304688 320.683594 127.535156 270.453125 127.535156 270.453125 C 142.257812 281.09375 159.703125 288.269531 178.632812 290.496094 L 178.632812 350.253906 L 129.144531 350.253906 C 112.949219 350.503906 112.859375 374.71875 129.144531 375 C 129.144531 375 252.867188 375 252.867188 375 C 269.011719 374.84375 269.066406 350.394531 252.867188 350.253906 C 252.867188 350.253906 203.378906 350.253906 203.378906 350.253906 L 203.378906 290.496094 C 259.644531 284.269531 302.21875 234.023438 299.015625 176.421875 C 298.871094 160.289062 274.410156 160.214844 274.273438 176.425781 C 274.273438 176.421875 274.273438 183.226562 274.273438 183.226562 C 275.625 248.292969 198.257812 289.492188 145.226562 252.757812 C 145.226562 252.761719 162.796875 235.191406 162.796875 235.191406 C 170.097656 238.285156 178.136719 240.015625 186.550781 240.015625 Z M 186.550781 240.015625 " fill-opacity="1" fill-rule="nonzero"/><path fill="#9d9ea4" d="M 95.367188 164.050781 C 84.328125 164.503906 82.15625 173.957031 82.996094 183.226562 C 82.996094 201.042969 87.324219 217.871094 95.121094 232.71875 L 113.800781 214.035156 C 109.84375 204.507812 107.738281 194.117188 107.738281 183.226562 C 108.582031 173.976562 106.398438 164.488281 95.367188 164.050781 Z M 95.367188 164.050781 " fill-opacity="1" fill-rule="nonzero"/></svg>