<svg xmlns="http://www.w3.org/2000/svg" xmlns:xlink="http://www.w3.org/1999/xlink" width="500" zoomAndPan="magnify" viewBox="0 0 375 374.999991" height="500" preserveAspectRatio="xMidYMid meet" version="1.0"><defs><clipPath id="f2c3359641"><path d="M 13.359375 0 L 361 0 L 361 201 L 13.359375 201 Z M 13.359375 0 " clip-rule="nonzero"/></clipPath></defs><path fill="#9d9ea4" d="M 293.453125 227.53125 C 288.691406 227.558594 283.960938 227.214844 279.253906 226.507812 C 274.546875 225.796875 269.925781 224.730469 265.382812 223.304688 C 260.84375 221.878906 256.441406 220.109375 252.175781 218 C 247.910156 215.890625 243.832031 213.460938 239.941406 210.71875 C 236.09375 213.46875 232.058594 215.902344 227.828125 218.015625 C 223.597656 220.132812 219.226562 221.902344 214.71875 223.332031 C 210.210938 224.757812 205.617188 225.824219 200.941406 226.527344 C 196.265625 227.234375 191.5625 227.566406 186.832031 227.53125 C 182.105469 227.550781 177.402344 227.207031 172.726562 226.507812 C 168.050781 225.804688 163.457031 224.753906 158.941406 223.351562 C 154.425781 221.945312 150.042969 220.207031 145.792969 218.136719 C 141.542969 216.0625 137.476562 213.679688 133.589844 210.984375 C 129.675781 213.652344 125.589844 216.015625 121.324219 218.074219 C 117.058594 220.128906 112.664062 221.859375 108.140625 223.261719 C 103.621094 224.664062 99.019531 225.722656 94.335938 226.4375 C 89.65625 227.15625 84.949219 227.519531 80.214844 227.53125 C 77.011719 227.53125 73.941406 227.398438 70.738281 227.132812 C 66.765625 226.746094 62.839844 226.089844 58.957031 225.164062 C 55.074219 224.242188 51.269531 223.058594 47.550781 221.613281 C 43.828125 220.171875 40.222656 218.480469 36.730469 216.542969 C 33.242188 214.609375 29.898438 212.445312 26.703125 210.050781 L 26.703125 334.285156 C 26.707031 335.59375 26.773438 336.902344 26.90625 338.207031 C 27.039062 339.507812 27.234375 340.800781 27.492188 342.085938 C 27.75 343.371094 28.070312 344.640625 28.453125 345.894531 C 28.835938 347.144531 29.28125 348.375 29.78125 349.585938 C 30.285156 350.796875 30.847656 351.976562 31.464844 353.132812 C 32.085938 354.289062 32.757812 355.410156 33.488281 356.496094 C 34.214844 357.585938 34.996094 358.636719 35.828125 359.648438 C 36.660156 360.660156 37.539062 361.632812 38.464844 362.558594 C 39.390625 363.484375 40.359375 364.363281 41.371094 365.195312 C 42.382812 366.027344 43.433594 366.804688 44.523438 367.535156 C 45.613281 368.261719 46.734375 368.9375 47.886719 369.554688 C 49.042969 370.175781 50.226562 370.734375 51.433594 371.238281 C 52.644531 371.742188 53.875 372.183594 55.128906 372.566406 C 56.382812 372.949219 57.648438 373.269531 58.933594 373.527344 C 60.21875 373.785156 61.511719 373.980469 62.816406 374.113281 C 64.117188 374.246094 65.425781 374.3125 66.734375 374.316406 L 133.457031 374.316406 L 133.457031 305.59375 C 133.492188 304.753906 133.570312 303.917969 133.6875 303.085938 C 133.804688 302.253906 133.960938 301.425781 134.160156 300.609375 C 134.359375 299.792969 134.59375 298.988281 134.871094 298.191406 C 135.148438 297.398438 135.464844 296.617188 135.816406 295.855469 C 136.171875 295.09375 136.558594 294.347656 136.984375 293.621094 C 137.414062 292.898438 137.871094 292.195312 138.367188 291.515625 C 138.863281 290.835938 139.390625 290.179688 139.949219 289.550781 C 140.507812 288.921875 141.09375 288.324219 141.710938 287.75 C 142.328125 287.179688 142.972656 286.640625 143.644531 286.132812 C 144.3125 285.625 145.007812 285.148438 145.722656 284.710938 C 146.441406 284.269531 147.175781 283.863281 147.933594 283.496094 C 148.691406 283.128906 149.460938 282.796875 150.25 282.503906 C 151.039062 282.210938 151.839844 281.957031 152.652344 281.742188 C 153.46875 281.53125 154.289062 281.355469 155.121094 281.222656 C 155.949219 281.085938 156.785156 280.996094 157.625 280.941406 C 158.464844 280.890625 159.304688 280.878906 160.144531 280.910156 L 213.519531 280.910156 C 214.363281 280.878906 215.203125 280.890625 216.042969 280.941406 C 216.878906 280.996094 217.714844 281.085938 218.546875 281.222656 C 219.375 281.355469 220.199219 281.53125 221.011719 281.746094 C 221.824219 281.957031 222.625 282.210938 223.414062 282.503906 C 224.203125 282.796875 224.976562 283.128906 225.730469 283.496094 C 226.488281 283.863281 227.226562 284.269531 227.941406 284.710938 C 228.65625 285.148438 229.351562 285.625 230.023438 286.132812 C 230.691406 286.640625 231.335938 287.179688 231.953125 287.75 C 232.570312 288.320312 233.160156 288.921875 233.71875 289.550781 C 234.277344 290.179688 234.804688 290.835938 235.296875 291.515625 C 235.792969 292.195312 236.253906 292.898438 236.679688 293.621094 C 237.105469 294.347656 237.496094 295.09375 237.847656 295.855469 C 238.203125 296.621094 238.515625 297.398438 238.792969 298.191406 C 239.070312 298.988281 239.308594 299.792969 239.507812 300.609375 C 239.703125 301.425781 239.863281 302.253906 239.980469 303.085938 C 240.097656 303.917969 240.171875 304.753906 240.210938 305.59375 L 240.210938 374.316406 L 306.929688 374.316406 C 308.238281 374.3125 309.546875 374.246094 310.851562 374.113281 C 312.152344 373.980469 313.445312 373.785156 314.730469 373.527344 C 316.015625 373.269531 317.285156 372.949219 318.539062 372.566406 C 319.789062 372.183594 321.019531 371.742188 322.230469 371.238281 C 323.441406 370.734375 324.621094 370.175781 325.777344 369.554688 C 326.933594 368.9375 328.054688 368.261719 329.140625 367.535156 C 330.230469 366.804688 331.28125 366.027344 332.292969 365.195312 C 333.304688 364.363281 334.277344 363.484375 335.203125 362.558594 C 336.128906 361.632812 337.007812 360.660156 337.839844 359.648438 C 338.671875 358.636719 339.449219 357.585938 340.179688 356.496094 C 340.90625 355.410156 341.582031 354.289062 342.199219 353.132812 C 342.820312 351.976562 343.378906 350.796875 343.882812 349.585938 C 344.386719 348.375 344.828125 347.144531 345.210938 345.894531 C 345.59375 344.640625 345.914062 343.371094 346.171875 342.085938 C 346.429688 340.800781 346.625 339.507812 346.757812 338.207031 C 346.890625 336.902344 346.957031 335.59375 346.960938 334.285156 L 346.960938 210.050781 C 343.765625 212.445312 340.425781 214.609375 336.933594 216.542969 C 333.445312 218.480469 329.835938 220.171875 326.117188 221.613281 C 322.394531 223.058594 318.59375 224.242188 314.710938 225.164062 C 310.828125 226.089844 306.898438 226.746094 302.925781 227.132812 C 299.722656 227.398438 296.65625 227.53125 293.453125 227.53125 Z M 293.453125 227.53125 " fill-opacity="1" fill-rule="nonzero"/><g clip-path="url(#f2c3359641)"><path fill="#9d9ea4" d="M 73.40625 200.511719 C 75.675781 200.738281 77.945312 200.84375 80.199219 200.84375 C 82.78125 200.855469 85.351562 200.71875 87.914062 200.429688 C 90.480469 200.144531 93.019531 199.710938 95.53125 199.128906 C 98.046875 198.546875 100.515625 197.824219 102.945312 196.953125 C 105.375 196.085938 107.746094 195.082031 110.0625 193.9375 C 112.375 192.792969 114.613281 191.519531 116.777344 190.117188 C 118.941406 188.714844 121.019531 187.191406 123.007812 185.546875 C 124.996094 183.90625 126.882812 182.152344 128.667969 180.289062 C 130.453125 178.425781 132.125 176.464844 133.683594 174.410156 C 135.226562 176.460938 136.882812 178.417969 138.652344 180.277344 C 140.421875 182.136719 142.292969 183.890625 144.269531 185.53125 C 146.242188 187.171875 148.304688 188.695312 150.453125 190.097656 C 152.605469 191.5 154.832031 192.773438 157.128906 193.917969 C 159.429688 195.058594 161.785156 196.066406 164.203125 196.933594 C 166.617188 197.804688 169.078125 198.53125 171.578125 199.113281 C 174.078125 199.695312 176.601562 200.132812 179.15625 200.421875 C 181.707031 200.710938 184.265625 200.851562 186.832031 200.84375 C 189.417969 200.867188 191.992188 200.734375 194.558594 200.445312 C 197.128906 200.15625 199.667969 199.710938 202.183594 199.113281 C 204.695312 198.511719 207.164062 197.765625 209.589844 196.867188 C 212.011719 195.96875 214.371094 194.925781 216.667969 193.742188 C 218.964844 192.558594 221.179688 191.238281 223.316406 189.785156 C 225.453125 188.328125 227.492188 186.75 229.4375 185.050781 C 231.378906 183.347656 233.214844 181.535156 234.9375 179.609375 C 236.664062 177.683594 238.265625 175.660156 239.742188 173.542969 C 241.445312 175.882812 243.292969 178.101562 245.285156 180.203125 C 247.277344 182.300781 249.398438 184.261719 251.648438 186.085938 C 253.898438 187.90625 256.257812 189.574219 258.722656 191.085938 C 261.191406 192.597656 263.746094 193.945312 266.390625 195.121094 C 269.035156 196.300781 271.746094 197.300781 274.519531 198.125 C 277.296875 198.949219 280.113281 199.585938 282.96875 200.042969 C 285.828125 200.496094 288.707031 200.765625 291.597656 200.84375 C 294.492188 200.921875 297.378906 200.808594 300.257812 200.511719 C 302.324219 200.253906 304.371094 199.902344 306.40625 199.457031 C 308.4375 199.015625 310.449219 198.480469 312.433594 197.851562 C 314.417969 197.226562 316.367188 196.507812 318.289062 195.703125 C 320.207031 194.898438 322.085938 194.007812 323.921875 193.03125 C 325.761719 192.058594 327.550781 191 329.292969 189.859375 C 331.035156 188.722656 332.722656 187.503906 334.351562 186.210938 C 335.984375 184.917969 337.550781 183.554688 339.058594 182.121094 C 340.566406 180.683594 342.003906 179.183594 343.375 177.617188 C 344.742188 176.046875 346.039062 174.421875 347.261719 172.738281 C 348.484375 171.054688 349.625 169.316406 350.6875 167.527344 C 351.753906 165.738281 352.730469 163.90625 353.628906 162.027344 C 354.523438 160.148438 355.332031 158.234375 356.054688 156.28125 C 356.777344 154.328125 357.410156 152.347656 357.949219 150.339844 C 358.492188 148.328125 358.941406 146.300781 359.296875 144.25 C 359.652344 142.199219 359.917969 140.136719 360.085938 138.0625 C 360.253906 135.988281 360.328125 133.910156 360.304688 131.828125 C 360.300781 123.367188 359.277344 115.03125 357.238281 106.820312 L 338.273438 31 C 338.007812 29.925781 337.695312 28.867188 337.335938 27.820312 C 336.980469 26.773438 336.582031 25.742188 336.140625 24.726562 C 335.699219 23.710938 335.214844 22.71875 334.691406 21.742188 C 334.167969 20.769531 333.601562 19.816406 333 18.890625 C 332.394531 17.960938 331.753906 17.0625 331.078125 16.1875 C 330.398438 15.3125 329.6875 14.46875 328.9375 13.652344 C 328.191406 12.835938 327.410156 12.054688 326.597656 11.304688 C 325.785156 10.554688 324.941406 9.835938 324.070312 9.15625 C 323.199219 8.476562 322.300781 7.832031 321.375 7.226562 C 320.449219 6.621094 319.5 6.054688 318.527344 5.527344 C 317.554688 4.996094 316.5625 4.511719 315.546875 4.066406 C 314.535156 3.621094 313.503906 3.21875 312.457031 2.859375 C 311.414062 2.5 310.351562 2.183594 309.28125 1.910156 C 308.207031 1.640625 307.125 1.410156 306.035156 1.230469 C 304.945312 1.046875 303.847656 0.910156 302.742188 0.820312 C 301.640625 0.726562 300.535156 0.683594 299.429688 0.683594 L 74.234375 0.683594 C 73.128906 0.683594 72.023438 0.726562 70.921875 0.820312 C 69.820312 0.910156 68.722656 1.046875 67.628906 1.230469 C 66.539062 1.410156 65.457031 1.640625 64.386719 1.910156 C 63.3125 2.183594 62.253906 2.5 61.207031 2.859375 C 60.160156 3.21875 59.128906 3.621094 58.117188 4.066406 C 57.105469 4.511719 56.113281 4.996094 55.140625 5.527344 C 54.167969 6.054688 53.21875 6.621094 52.292969 7.226562 C 51.367188 7.832031 50.46875 8.476562 49.59375 9.15625 C 48.722656 9.835938 47.878906 10.554688 47.066406 11.304688 C 46.253906 12.054688 45.472656 12.835938 44.726562 13.652344 C 43.980469 14.46875 43.265625 15.3125 42.585938 16.1875 C 41.910156 17.0625 41.269531 17.960938 40.667969 18.890625 C 40.0625 19.816406 39.5 20.769531 38.976562 21.742188 C 38.449219 22.71875 37.96875 23.710938 37.523438 24.726562 C 37.082031 25.742188 36.683594 26.773438 36.328125 27.820312 C 35.972656 28.867188 35.660156 29.925781 35.390625 31 L 16.429688 106.820312 C 14.386719 115.03125 13.363281 123.367188 13.359375 131.828125 C 13.339844 133.910156 13.414062 135.988281 13.582031 138.0625 C 13.75 140.136719 14.011719 142.199219 14.367188 144.25 C 14.726562 146.300781 15.171875 148.328125 15.714844 150.339844 C 16.257812 152.347656 16.886719 154.328125 17.609375 156.28125 C 18.332031 158.234375 19.140625 160.148438 20.039062 162.027344 C 20.933594 163.90625 21.914062 165.738281 22.976562 167.527344 C 24.039062 169.316406 25.183594 171.054688 26.40625 172.738281 C 27.625 174.421875 28.921875 176.046875 30.292969 177.617188 C 31.660156 179.183594 33.101562 180.683594 34.605469 182.121094 C 36.113281 183.554688 37.683594 184.917969 39.3125 186.210938 C 40.945312 187.503906 42.628906 188.722656 44.371094 189.859375 C 46.113281 191 47.902344 192.058594 49.742188 193.03125 C 51.578125 194.007812 53.457031 194.898438 55.378906 195.703125 C 57.296875 196.507812 59.25 197.226562 61.234375 197.851562 C 63.21875 198.480469 65.226562 199.015625 67.261719 199.457031 C 69.292969 199.902344 71.34375 200.253906 73.40625 200.511719 Z M 73.40625 200.511719 " fill-opacity="1" fill-rule="nonzero"/></g></svg>