<svg xmlns="http://www.w3.org/2000/svg" xmlns:xlink="http://www.w3.org/1999/xlink" width="500" zoomAndPan="magnify" viewBox="0 0 375 374.999991" height="500" preserveAspectRatio="xMidYMid meet" version="1.0"><path fill="#9d9ea4" d="M 222.644531 2.65625 C 218.046875 0.433594 212.519531 1.054688 208.542969 4.246094 L 78.324219 108.097656 L 16.679688 108.097656 C 9.304688 108.097656 3.335938 114.070312 3.335938 121.441406 L 3.335938 254.894531 C 3.335938 262.261719 9.304688 268.238281 16.679688 268.238281 L 78.324219 268.238281 L 208.542969 372.085938 C 210.941406 374.007812 213.886719 375 216.859375 375 C 218.828125 375 220.808594 374.5625 222.644531 373.675781 C 227.273438 371.457031 230.203125 366.78125 230.203125 361.65625 L 230.203125 14.679688 C 230.203125 9.550781 227.273438 4.878906 222.644531 2.65625 Z M 222.644531 2.65625 " fill-opacity="1" fill-rule="nonzero"/><path fill="#9d9ea4" d="M 247.460938 125.351562 C 242.246094 130.5625 242.246094 139.007812 247.460938 144.222656 C 268.402344 165.171875 268.402344 211.164062 247.460938 232.113281 C 242.246094 237.324219 242.246094 245.769531 247.460938 250.984375 C 250.066406 253.589844 253.480469 254.894531 256.894531 254.894531 C 260.308594 254.894531 263.722656 253.589844 266.332031 250.984375 C 297.453125 219.867188 297.453125 156.464844 266.332031 125.351562 C 261.117188 120.136719 252.671875 120.136719 247.460938 125.351562 Z M 247.460938 125.351562 " fill-opacity="1" fill-rule="nonzero"/><path fill="#9d9ea4" d="M 333.472656 85.746094 C 328.496094 80.304688 320.023438 79.933594 314.617188 84.90625 C 309.179688 89.875 308.804688 98.316406 313.769531 103.757812 C 332.507812 124.25 343.992188 156.453125 344.472656 189.894531 C 344.96875 224.105469 334.085938 253.933594 314.617188 271.730469 C 309.179688 276.710938 308.804688 285.148438 313.769531 290.589844 C 316.402344 293.46875 320.011719 294.929688 323.621094 294.929688 C 326.839844 294.929688 330.058594 293.777344 332.625 291.4375 C 357.714844 268.492188 371.761719 231.34375 371.164062 189.507812 C 370.589844 149.714844 356.5 110.929688 333.472656 85.746094 Z M 333.472656 85.746094 " fill-opacity="1" fill-rule="nonzero"/></svg>