<svg xmlns="http://www.w3.org/2000/svg" xmlns:xlink="http://www.w3.org/1999/xlink" width="500" zoomAndPan="magnify" viewBox="0 0 375 374.999991" height="500" preserveAspectRatio="xMidYMid meet" version="1.0"><path fill="#9d9ea4" d="M 311.304688 0 L 64.492188 0 C 28.890625 0.0429688 0.0429688 28.890625 0 64.492188 L 0 312.183594 C 0.0390625 346.804688 28.097656 374.863281 62.714844 374.902344 L 187.597656 374.902344 C 237.289062 374.949219 284.957031 355.230469 320.097656 320.097656 C 355.230469 284.957031 374.949219 237.289062 374.902344 187.597656 L 374.902344 63.59375 C 374.863281 28.488281 346.414062 0.0390625 311.304688 0 Z M 62.714844 351.097656 C 41.234375 351.074219 23.828125 333.667969 23.804688 312.183594 L 23.804688 64.492188 C 23.832031 42.03125 42.03125 23.832031 64.492188 23.804688 L 311.300781 23.804688 C 333.269531 23.828125 351.074219 41.625 351.097656 63.59375 L 351.097656 187.597656 C 351.09375 195.488281 350.527344 203.371094 349.398438 211.179688 L 273.890625 211.179688 C 239.273438 211.21875 211.21875 239.273438 211.179688 273.890625 L 211.179688 278.988281 C 203.382812 280.660156 195.425781 281.503906 187.449219 281.5 C 157.667969 281.582031 129.09375 269.746094 108.089844 248.632812 C 103.445312 243.984375 95.910156 243.984375 91.261719 248.632812 C 86.613281 253.277344 86.613281 260.8125 91.261719 265.460938 C 116.714844 291.054688 151.355469 305.40625 187.449219 305.304688 C 195.402344 305.300781 203.347656 304.601562 211.179688 303.21875 L 211.179688 349.394531 C 203.371094 350.523438 195.488281 351.09375 187.597656 351.097656 Z M 234.984375 344.132812 L 234.984375 273.890625 C 235.007812 252.414062 252.414062 235.007812 273.890625 234.984375 L 344.132812 234.984375 C 328.371094 287.378906 287.378906 328.371094 234.984375 344.132812 Z M 234.984375 344.132812 " fill-opacity="1" fill-rule="nonzero"/><path fill="#9d9ea4" d="M 99.675781 193.722656 C 106.25 193.722656 111.578125 188.394531 111.578125 181.820312 L 111.578125 158.953125 C 111.578125 152.378906 106.25 147.050781 99.675781 147.050781 C 93.101562 147.050781 87.773438 152.378906 87.773438 158.953125 L 87.773438 181.820312 C 87.773438 188.394531 93.101562 193.722656 99.675781 193.722656 Z M 99.675781 193.722656 " fill-opacity="1" fill-rule="nonzero"/><path fill="#9d9ea4" d="M 275.226562 193.722656 C 281.800781 193.722656 287.125 188.394531 287.125 181.820312 L 287.125 158.953125 C 287.125 152.378906 281.800781 147.050781 275.226562 147.050781 C 268.648438 147.050781 263.324219 152.378906 263.324219 158.953125 L 263.324219 181.820312 C 263.324219 188.394531 268.648438 193.722656 275.226562 193.722656 Z M 275.226562 193.722656 " fill-opacity="1" fill-rule="nonzero"/></svg>