<svg xmlns="http://www.w3.org/2000/svg" xmlns:xlink="http://www.w3.org/1999/xlink" width="500" zoomAndPan="magnify" viewBox="0 0 375 374.999991" height="500" preserveAspectRatio="xMidYMid meet" version="1.0"><defs><clipPath id="3072844e34"><path d="M 18.785156 288 L 118 288 L 118 375 L 18.785156 375 Z M 18.785156 288 " clip-rule="nonzero"/></clipPath><clipPath id="5746a14179"><path d="M 188.078125 0.230469 L 356.261719 0.230469 L 356.261719 143 L 188.078125 143 Z M 188.078125 0.230469 " clip-rule="nonzero"/></clipPath></defs><g clip-path="url(#3072844e34)"><path fill="#9d9ea4" d="M 30.707031 288.851562 L 21.738281 301.40625 C 12.722656 313.101562 25.054688 337.699219 49.257812 356.34375 C 73.464844 374.984375 100.398438 380.621094 109.402344 368.925781 L 117.203125 358.019531 C 83.828125 347.292969 47.355469 316.5 30.707031 288.851562 " fill-opacity="1" fill-rule="nonzero"/></g><g clip-path="url(#5746a14179)"><path fill="#9d9ea4" d="M 345.742188 92.976562 C 345.742188 92.976562 340.378906 105.390625 337.84375 108.570312 C 324.609375 125.164062 287.71875 117.738281 255.441406 91.992188 C 223.164062 66.246094 207.730469 31.921875 220.953125 15.332031 C 223.492188 12.152344 234.027344 4.617188 234.027344 4.617188 C 216.535156 -1.0625 200.769531 -2.015625 192.871094 6.589844 C 185.859375 14.238281 187.148438 29.265625 194.917969 46.542969 C 204.132812 67.03125 221.617188 88.214844 244.128906 106.167969 C 272.285156 128.625 304.734375 142.585938 328.820312 142.585938 C 336.558594 142.585938 346.957031 141.089844 352.609375 134.015625 C 359.429688 125.453125 356.414062 110.507812 345.742188 92.976562 " fill-opacity="1" fill-rule="nonzero"/></g><path fill="#9d9ea4" d="M 264.429688 81.066406 C 285.945312 98.230469 308.066406 104.019531 320.339844 104.019531 L 338.386719 81.429688 C 324.542969 85.277344 301.453125 77.550781 280.375 60.738281 C 259.273438 43.914062 246.609375 23.097656 247.296875 8.746094 L 229.242188 31.351562 C 229.242188 38.550781 239.273438 60.992188 264.429688 81.066406 " fill-opacity="1" fill-rule="nonzero"/><path fill="#9d9ea4" d="M 286.984375 52.449219 C 307.070312 68.464844 328.722656 74.722656 335.34375 66.417969 C 341.972656 58.117188 331.058594 38.398438 310.972656 22.371094 C 290.882812 6.355469 269.230469 0.0976562 262.609375 8.394531 C 255.984375 16.703125 266.902344 36.421875 286.984375 52.449219 " fill-opacity="1" fill-rule="nonzero"/><path fill="#9d9ea4" d="M 53.699219 244.089844 L 89.210938 322.371094 C 99.410156 329.480469 109.753906 335.378906 119.882812 339.953125 L 78.648438 249.363281 L 53.699219 244.089844 " fill-opacity="1" fill-rule="nonzero"/><path fill="#9d9ea4" d="M 37.582031 188.769531 L 278.316406 239.652344 L 293.191406 220.992188 L 52.457031 170.105469 L 37.582031 188.769531 " fill-opacity="1" fill-rule="nonzero"/><path fill="#9d9ea4" d="M 96.382812 253.113281 L 139.199219 347.183594 C 148.101562 349.800781 156.601562 351.277344 164.382812 351.523438 L 122.066406 258.539062 L 96.382812 253.113281 " fill-opacity="1" fill-rule="nonzero"/><path fill="#9d9ea4" d="M 233.519531 295.800781 L 242.878906 284.078125 L 226.617188 280.644531 Z M 233.519531 295.800781 " fill-opacity="1" fill-rule="nonzero"/><path fill="#9d9ea4" d="M 183.207031 271.46875 L 208.535156 327.117188 L 223.308594 308.601562 L 208.886719 276.894531 L 183.207031 271.46875 " fill-opacity="1" fill-rule="nonzero"/><path fill="#9d9ea4" d="M 235.621094 116.832031 C 195.542969 84.859375 172.253906 44.367188 175.144531 16.320312 L 153.566406 43.363281 L 236.453125 157.078125 L 328.640625 176.566406 L 347.066406 153.464844 C 320.359375 162.515625 275.699219 148.800781 235.621094 116.832031 " fill-opacity="1" fill-rule="nonzero"/><path fill="#9d9ea4" d="M 20.558594 222.023438 L 253.152344 271.195312 L 268.035156 252.535156 L 27.320312 201.648438 C 22.941406 207.25 20.769531 214.195312 20.558594 222.023438 " fill-opacity="1" fill-rule="nonzero"/><path fill="#9d9ea4" d="M 63.519531 301.300781 L 35.84375 240.3125 L 22.382812 237.46875 C 27.308594 257.398438 41.832031 280.472656 63.519531 301.300781 " fill-opacity="1" fill-rule="nonzero"/><path fill="#9d9ea4" d="M 139.796875 262.292969 L 179.789062 350.15625 C 187.347656 348.40625 193.667969 344.992188 198.296875 339.828125 L 165.476562 267.71875 L 139.796875 262.292969 " fill-opacity="1" fill-rule="nonzero"/><path fill="#9d9ea4" d="M 98.058594 112.945312 L 87.894531 125.679688 L 110.886719 130.535156 Z M 98.058594 112.945312 " fill-opacity="1" fill-rule="nonzero"/><path fill="#9d9ea4" d="M 163.023438 141.5625 L 121.105469 84.054688 L 107.472656 101.140625 L 132.1875 135.039062 L 163.023438 141.5625 " fill-opacity="1" fill-rule="nonzero"/><path fill="#9d9ea4" d="M 62.738281 157.226562 L 303.472656 208.109375 L 318.359375 189.457031 L 77.625 138.5625 L 62.738281 157.226562 " fill-opacity="1" fill-rule="nonzero"/><path fill="#9d9ea4" d="M 215.15625 152.578125 L 144.152344 55.164062 L 130.519531 72.25 L 184.320312 146.0625 L 215.15625 152.578125 " fill-opacity="1" fill-rule="nonzero"/></svg>