<svg xmlns="http://www.w3.org/2000/svg" xmlns:xlink="http://www.w3.org/1999/xlink" width="500" zoomAndPan="magnify" viewBox="0 0 375 374.999991" height="500" preserveAspectRatio="xMidYMid meet" version="1.0"><defs><clipPath id="ea3eec05f3"><path d="M 0 68.203125 L 375 68.203125 L 375 306.703125 L 0 306.703125 Z M 0 68.203125 " clip-rule="nonzero"/></clipPath></defs><g clip-path="url(#ea3eec05f3)"><path fill="#9d9ea4" d="M 34.117188 68.203125 C 15.320312 68.203125 0.0351562 83.488281 0.0351562 102.289062 L 0.0351562 272.710938 C 0.0351562 291.511719 15.320312 306.796875 34.117188 306.796875 L 255.667969 306.796875 C 274.46875 306.796875 289.753906 291.511719 289.753906 272.710938 L 289.753906 222.984375 L 347.273438 268.984375 C 350.355469 271.4375 354.125 272.710938 357.925781 272.710938 C 360.429688 272.710938 362.960938 272.140625 365.3125 271.015625 C 371.226562 268.183594 374.964844 262.214844 374.964844 255.667969 L 374.964844 119.332031 C 374.964844 112.785156 371.226562 106.796875 365.3125 103.953125 C 359.417969 101.140625 352.386719 101.925781 347.273438 106.015625 L 289.753906 152.015625 L 289.753906 102.289062 C 289.753906 83.488281 274.46875 68.203125 255.667969 68.203125 Z M 34.117188 68.203125 " fill-opacity="1" fill-rule="nonzero"/></g></svg>