<svg xmlns="http://www.w3.org/2000/svg" xmlns:xlink="http://www.w3.org/1999/xlink" width="500" zoomAndPan="magnify" viewBox="0 0 375 374.999991" height="500" preserveAspectRatio="xMidYMid meet" version="1.0"><path fill="#9d9ea4" d="M 330.835938 288.367188 C 328.652344 277.449219 318.984375 269.53125 307.851562 269.53125 L 260.984375 269.53125 C 249.476562 269.53125 239.75 277.769531 237.859375 289.125 L 235.328125 304.359375 C 148.433594 299.15625 79.101562 232.058594 71.082031 145.4375 L 85.855469 142.992188 C 97.214844 141.109375 105.460938 131.382812 105.460938 119.867188 L 105.460938 67.15625 C 105.460938 56.023438 97.535156 46.355469 86.625 44.171875 L 43.863281 35.617188 C 42.355469 35.316406 40.8125 35.164062 39.273438 35.164062 L 34.777344 35.164062 C 24.660156 35.164062 15.734375 41.585938 12.546875 51.144531 C 4.21875 76.15625 0 102.320312 0 128.90625 C 0 194.683594 25.589844 256.492188 72.054688 302.953125 C 118.519531 349.410156 180.328125 375 246.109375 374.992188 C 272.695312 374.992188 298.855469 370.765625 323.871094 362.4375 C 333.425781 359.253906 339.851562 350.324219 339.851562 340.210938 L 339.851562 335.710938 C 339.851562 334.175781 339.695312 332.628906 339.398438 331.113281 L 330.84375 288.355469 Z M 330.835938 288.367188 " fill-opacity="1" fill-rule="nonzero"/><path fill="#9d9ea4" d="M 321.796875 53.203125 C 287.488281 18.894531 241.875 0 193.359375 0 C 186.882812 0 181.640625 5.242188 181.640625 11.71875 C 181.640625 18.191406 186.882812 23.4375 193.359375 23.4375 C 280.589844 23.4375 351.5625 94.410156 351.5625 181.640625 C 351.5625 188.113281 356.804688 193.359375 363.28125 193.359375 C 369.753906 193.359375 375 188.113281 375 181.640625 C 375 133.125 356.101562 87.507812 321.796875 53.203125 Z M 321.796875 53.203125 " fill-opacity="1" fill-rule="nonzero"/><path fill="#9d9ea4" d="M 193.359375 82.03125 C 248.285156 82.03125 292.96875 126.714844 292.96875 181.640625 C 292.96875 188.113281 298.210938 193.359375 304.6875 193.359375 C 311.160156 193.359375 316.40625 188.113281 316.40625 181.640625 C 316.40625 113.789062 261.210938 58.59375 193.359375 58.59375 C 186.882812 58.59375 181.640625 63.835938 181.640625 70.3125 C 181.640625 76.785156 186.882812 82.03125 193.359375 82.03125 Z M 193.359375 82.03125 " fill-opacity="1" fill-rule="nonzero"/><path fill="#9d9ea4" d="M 193.359375 140.625 C 215.976562 140.625 234.375 159.023438 234.375 181.640625 C 234.375 188.113281 239.617188 193.359375 246.09375 193.359375 C 252.566406 193.359375 257.8125 188.113281 257.8125 181.640625 C 257.8125 146.101562 228.894531 117.1875 193.359375 117.1875 C 186.882812 117.1875 181.640625 122.429688 181.640625 128.90625 C 181.640625 135.378906 186.882812 140.625 193.359375 140.625 Z M 193.359375 140.625 " fill-opacity="1" fill-rule="nonzero"/></svg>