<svg xmlns="http://www.w3.org/2000/svg" xmlns:xlink="http://www.w3.org/1999/xlink" width="500" zoomAndPan="magnify" viewBox="0 0 375 374.999991" height="500" preserveAspectRatio="xMidYMid meet" version="1.0"><defs><clipPath id="3f620f2198"><path d="M 0 0.527344 L 375 0.527344 L 375 375 L 0 375 Z M 0 0.527344 " clip-rule="nonzero"/></clipPath><clipPath id="4d4ecafc1b"><path d="M 187.5 0.527344 C 83.945312 0.527344 0 84.476562 0 188.027344 C 0 291.582031 83.945312 375.527344 187.5 375.527344 C 291.054688 375.527344 375 291.582031 375 188.027344 C 375 84.476562 291.054688 0.527344 187.5 0.527344 Z M 187.5 0.527344 " clip-rule="nonzero"/></clipPath><clipPath id="650bf5e898"><path d="M 66.179688 94 L 309.179688 94 L 309.179688 281 L 66.179688 281 Z M 66.179688 94 " clip-rule="nonzero"/></clipPath></defs><g clip-path="url(#3f620f2198)"><g clip-path="url(#4d4ecafc1b)"><path fill="#5865f2" d="M 0 0.527344 L 375 0.527344 L 375 375.527344 L 0 375.527344 Z M 0 0.527344 " fill-opacity="1" fill-rule="nonzero"/></g></g><g clip-path="url(#650bf5e898)"><path fill="#ffffff" d="M 271.890625 110.28125 C 256.402344 103.175781 239.792969 97.941406 222.425781 94.941406 C 222.109375 94.882812 221.796875 95.027344 221.632812 95.316406 C 219.496094 99.117188 217.128906 104.074219 215.472656 107.96875 C 196.796875 105.171875 178.214844 105.171875 159.921875 107.96875 C 158.261719 103.988281 155.8125 99.117188 153.664062 95.316406 C 153.503906 95.039062 153.1875 94.894531 152.871094 94.941406 C 135.515625 97.929688 118.90625 103.167969 103.410156 110.28125 C 103.273438 110.339844 103.160156 110.4375 103.082031 110.5625 C 71.582031 157.628906 62.949219 203.539062 67.183594 248.882812 C 67.203125 249.101562 67.328125 249.316406 67.5 249.449219 C 88.285156 264.714844 108.417969 273.980469 128.179688 280.125 C 128.496094 280.222656 128.828125 280.105469 129.03125 279.84375 C 133.703125 273.460938 137.871094 266.730469 141.445312 259.652344 C 141.65625 259.238281 141.453125 258.746094 141.023438 258.582031 C 134.414062 256.074219 128.121094 253.019531 122.066406 249.546875 C 121.589844 249.265625 121.550781 248.582031 121.992188 248.253906 C 123.265625 247.300781 124.539062 246.308594 125.753906 245.304688 C 125.976562 245.121094 126.28125 245.082031 126.539062 245.199219 C 166.308594 263.355469 209.363281 263.355469 248.660156 245.199219 C 248.921875 245.074219 249.226562 245.109375 249.457031 245.292969 C 250.671875 246.296875 251.945312 247.300781 253.230469 248.253906 C 253.671875 248.582031 253.640625 249.265625 253.164062 249.546875 C 247.109375 253.085938 240.816406 256.074219 234.199219 258.574219 C 233.769531 258.738281 233.574219 259.238281 233.785156 259.652344 C 237.4375 266.722656 241.601562 273.453125 246.191406 279.835938 C 246.382812 280.105469 246.726562 280.222656 247.042969 280.125 C 266.898438 273.980469 287.03125 264.714844 307.816406 249.449219 C 308 249.316406 308.113281 249.113281 308.132812 248.890625 C 313.199219 196.472656 299.644531 150.9375 272.203125 110.574219 C 272.136719 110.4375 272.023438 110.339844 271.890625 110.28125 Z M 147.382812 221.273438 C 135.410156 221.273438 125.542969 210.28125 125.542969 196.78125 C 125.542969 183.28125 135.21875 172.289062 147.382812 172.289062 C 159.640625 172.289062 169.414062 183.375 169.21875 196.78125 C 169.21875 210.28125 159.546875 221.273438 147.382812 221.273438 Z M 228.125 221.273438 C 216.152344 221.273438 206.289062 210.28125 206.289062 196.78125 C 206.289062 183.28125 215.960938 172.289062 228.125 172.289062 C 240.386719 172.289062 250.15625 183.375 249.964844 196.78125 C 249.964844 210.28125 240.386719 221.273438 228.125 221.273438 Z M 228.125 221.273438 " fill-opacity="1" fill-rule="nonzero"/></g></svg>