<svg xmlns="http://www.w3.org/2000/svg" xmlns:xlink="http://www.w3.org/1999/xlink" width="500" zoomAndPan="magnify" viewBox="0 0 375 374.999991" height="500" preserveAspectRatio="xMidYMid meet" version="1.0"><defs><clipPath id="78d1de03eb"><path d="M 0.00390625 44 L 374.996094 44 L 374.996094 331 L 0.00390625 331 Z M 0.00390625 44 " clip-rule="nonzero"/></clipPath></defs><g clip-path="url(#78d1de03eb)"><path fill="#23272a" d="M 317.449219 68.101562 C 293.550781 57.144531 267.917969 49.070312 241.121094 44.445312 C 240.632812 44.355469 240.144531 44.578125 239.894531 45.027344 C 236.597656 50.882812 232.949219 58.527344 230.390625 64.53125 C 201.570312 60.21875 172.894531 60.21875 144.664062 64.53125 C 142.105469 58.390625 138.320312 50.882812 135.011719 45.027344 C 134.757812 44.59375 134.273438 44.371094 133.785156 44.445312 C 107 49.054688 81.371094 57.128906 57.457031 68.101562 C 57.25 68.191406 57.070312 68.339844 56.953125 68.53125 C 8.339844 141.101562 -4.976562 211.886719 1.554688 281.796875 C 1.585938 282.136719 1.777344 282.464844 2.042969 282.671875 C 34.117188 306.207031 65.1875 320.496094 95.679688 329.96875 C 96.167969 330.117188 96.683594 329.9375 96.996094 329.535156 C 104.207031 319.695312 110.636719 309.316406 116.148438 298.402344 C 116.476562 297.765625 116.164062 297.007812 115.5 296.753906 C 105.300781 292.886719 95.589844 288.175781 86.25 282.820312 C 85.511719 282.390625 85.449219 281.335938 86.128906 280.828125 C 88.097656 279.359375 90.0625 277.828125 91.941406 276.28125 C 92.277344 275.996094 92.753906 275.9375 93.152344 276.117188 C 154.519531 304.113281 220.960938 304.113281 281.605469 276.117188 C 282.003906 275.921875 282.476562 275.984375 282.832031 276.265625 C 284.710938 277.8125 286.675781 279.359375 288.65625 280.828125 C 289.335938 281.335938 289.292969 282.390625 288.554688 282.820312 C 279.210938 288.277344 269.5 292.886719 259.289062 296.738281 C 258.621094 296.992188 258.328125 297.765625 258.652344 298.402344 C 264.28125 309.300781 270.710938 319.679688 277.792969 329.523438 C 278.089844 329.9375 278.621094 330.117188 279.109375 329.96875 C 309.75 320.496094 340.816406 306.207031 372.890625 282.671875 C 373.171875 282.464844 373.351562 282.152344 373.378906 281.8125 C 381.199219 200.988281 360.285156 130.785156 317.9375 68.546875 C 317.832031 68.339844 317.65625 68.191406 317.449219 68.101562 Z M 125.316406 239.230469 C 106.839844 239.230469 91.613281 222.28125 91.613281 201.464844 C 91.613281 180.648438 106.542969 163.699219 125.316406 163.699219 C 144.234375 163.699219 159.308594 180.796875 159.015625 201.464844 C 159.015625 222.28125 144.085938 239.230469 125.316406 239.230469 Z M 249.917969 239.230469 C 231.441406 239.230469 216.214844 222.28125 216.214844 201.464844 C 216.214844 180.648438 231.144531 163.699219 249.917969 163.699219 C 268.835938 163.699219 283.910156 180.796875 283.617188 201.464844 C 283.617188 222.28125 268.835938 239.230469 249.917969 239.230469 Z M 249.917969 239.230469 " fill-opacity="1" fill-rule="nonzero"/></g></svg>