<svg xmlns="http://www.w3.org/2000/svg" xmlns:xlink="http://www.w3.org/1999/xlink" width="500" zoomAndPan="magnify" viewBox="0 0 375 149.999998" height="200" preserveAspectRatio="xMidYMid meet" version="1.0"><defs><clipPath id="fd57d4da7c"><path d="M 0.00390625 38.742188 L 94 38.742188 L 94 111.269531 L 0.00390625 111.269531 Z M 0.00390625 38.742188 " clip-rule="nonzero"/></clipPath><clipPath id="8cf4d4a5bf"><path d="M 335 56 L 374.996094 56 L 374.996094 96 L 335 96 Z M 335 56 " clip-rule="nonzero"/></clipPath></defs><g clip-path="url(#fd57d4da7c)"><path fill="#23272a" d="M 79.363281 44.816406 C 73.296875 41.976562 66.8125 39.914062 60.035156 38.742188 C 59.203125 40.246094 58.230469 42.269531 57.558594 43.882812 C 50.351562 42.796875 43.210938 42.796875 36.136719 43.882812 C 35.46875 42.269531 34.472656 40.246094 33.632812 38.742188 C 26.847656 39.914062 20.355469 41.984375 14.289062 44.828125 C 2.058594 63.316406 -1.257812 81.34375 0.402344 99.113281 C 8.511719 105.171875 16.375 108.855469 24.105469 111.261719 C 26.015625 108.636719 27.714844 105.84375 29.183594 102.898438 C 26.390625 101.839844 23.714844 100.527344 21.1875 99.007812 C 21.859375 98.511719 22.515625 97.992188 23.148438 97.457031 C 38.5625 104.667969 55.3125 104.667969 70.542969 97.457031 C 71.183594 97.992188 71.839844 98.511719 72.503906 99.007812 C 69.96875 100.535156 67.285156 101.847656 64.492188 102.90625 C 65.960938 105.84375 67.652344 108.644531 69.570312 111.269531 C 77.308594 108.859375 85.175781 105.179688 93.289062 99.113281 C 95.234375 78.511719 89.964844 60.652344 79.363281 44.816406 Z M 31.28125 88.183594 C 26.65625 88.183594 22.859375 83.863281 22.859375 78.601562 C 22.859375 73.339844 26.574219 69.011719 31.28125 69.011719 C 35.992188 69.011719 39.785156 73.335938 39.703125 78.601562 C 39.710938 83.863281 35.992188 88.183594 31.28125 88.183594 Z M 62.40625 88.183594 C 57.78125 88.183594 53.984375 83.863281 53.984375 78.601562 C 53.984375 73.339844 57.699219 69.011719 62.40625 69.011719 C 67.117188 69.011719 70.910156 73.335938 70.828125 78.601562 C 70.828125 83.863281 67.117188 88.183594 62.40625 88.183594 Z M 62.40625 88.183594 " fill-opacity="1" fill-rule="nonzero"/></g><path fill="#23272a" d="M 125.894531 57.242188 L 146.011719 57.242188 C 150.859375 57.242188 154.957031 58.019531 158.316406 59.5625 C 161.667969 61.105469 164.183594 63.257812 165.847656 66.011719 C 167.511719 68.765625 168.351562 71.921875 168.351562 75.472656 C 168.351562 78.949219 167.484375 82.105469 165.742188 84.925781 C 164.003906 87.757812 161.359375 89.992188 157.800781 91.640625 C 154.242188 93.289062 149.835938 94.117188 144.566406 94.117188 L 125.894531 94.117188 Z M 144.359375 84.746094 C 147.625 84.746094 150.136719 83.910156 151.890625 82.246094 C 153.644531 80.578125 154.523438 78.304688 154.523438 75.421875 C 154.523438 72.75 153.738281 70.617188 152.179688 69.023438 C 150.617188 67.425781 148.25 66.621094 145.089844 66.621094 L 138.796875 66.621094 L 138.796875 84.746094 Z M 144.359375 84.746094 " fill-opacity="1" fill-rule="nonzero"/><path fill="#23272a" d="M 198.46875 94.074219 C 195.683594 93.335938 193.167969 92.265625 190.9375 90.859375 L 190.9375 82.113281 C 192.625 83.445312 194.886719 84.542969 197.722656 85.410156 C 200.5625 86.265625 203.300781 86.695312 205.953125 86.695312 C 207.191406 86.695312 208.128906 86.53125 208.761719 86.199219 C 209.394531 85.867188 209.714844 85.46875 209.714844 85.011719 C 209.714844 84.484375 209.542969 84.046875 209.195312 83.691406 C 208.851562 83.339844 208.179688 83.046875 207.1875 82.796875 L 200.996094 81.375 C 197.453125 80.53125 194.9375 79.363281 193.445312 77.867188 C 191.949219 76.375 191.203125 74.417969 191.203125 71.996094 C 191.203125 69.957031 191.851562 68.1875 193.164062 66.675781 C 194.46875 65.160156 196.324219 63.996094 198.734375 63.175781 C 201.144531 62.347656 203.957031 61.933594 207.191406 61.933594 C 210.082031 61.933594 212.726562 62.25 215.136719 62.882812 C 217.546875 63.511719 219.535156 64.320312 221.121094 65.304688 L 221.121094 73.578125 C 219.496094 72.589844 217.640625 71.816406 215.519531 71.226562 C 213.402344 70.648438 211.230469 70.363281 208.992188 70.363281 C 205.753906 70.363281 204.140625 70.925781 204.140625 72.046875 C 204.140625 72.574219 204.394531 72.96875 204.894531 73.230469 C 205.394531 73.492188 206.316406 73.765625 207.648438 74.050781 L 212.808594 75 C 216.175781 75.59375 218.6875 76.640625 220.335938 78.128906 C 221.988281 79.621094 222.8125 81.828125 222.8125 84.746094 C 222.8125 87.945312 221.449219 90.480469 218.71875 92.363281 C 215.984375 94.246094 212.105469 95.1875 207.082031 95.1875 C 204.125 95.179688 201.253906 94.808594 198.46875 94.074219 Z M 198.46875 94.074219 " fill-opacity="1" fill-rule="nonzero"/><path fill="#23272a" d="M 234.988281 92.964844 C 232.035156 91.492188 229.800781 89.488281 228.3125 86.960938 C 226.824219 84.429688 226.074219 81.585938 226.074219 78.421875 C 226.074219 75.261719 226.847656 72.433594 228.394531 69.941406 C 229.941406 67.449219 232.210938 65.492188 235.203125 64.070312 C 238.195312 62.648438 241.769531 61.941406 245.929688 61.941406 C 251.089844 61.941406 255.371094 63.046875 258.773438 65.257812 L 258.773438 74.902344 C 257.574219 74.058594 256.171875 73.375 254.574219 72.847656 C 252.976562 72.320312 251.265625 72.054688 249.4375 72.054688 C 246.242188 72.054688 243.742188 72.652344 241.9375 73.847656 C 240.132812 75.042969 239.226562 76.601562 239.226562 78.535156 C 239.226562 80.433594 240.101562 81.984375 241.855469 83.203125 C 243.609375 84.414062 246.152344 85.023438 249.488281 85.023438 C 251.207031 85.023438 252.902344 84.769531 254.574219 84.265625 C 256.238281 83.753906 257.675781 83.128906 258.878906 82.390625 L 258.878906 91.714844 C 255.097656 94.035156 250.714844 95.195312 245.722656 95.195312 C 241.523438 95.179688 237.941406 94.441406 234.988281 92.964844 Z M 234.988281 92.964844 " fill-opacity="1" fill-rule="nonzero"/><path fill="#23272a" d="M 271.640625 92.964844 C 268.664062 91.492188 266.394531 89.472656 264.832031 86.90625 C 263.269531 84.339844 262.480469 81.480469 262.480469 78.320312 C 262.480469 75.15625 263.261719 72.335938 264.832031 69.859375 C 266.402344 67.382812 268.65625 65.441406 271.617188 64.03125 C 274.570312 62.625 278.101562 61.925781 282.191406 61.925781 C 286.28125 61.925781 289.8125 62.625 292.765625 64.03125 C 295.71875 65.441406 297.976562 67.367188 299.523438 69.828125 C 301.070312 72.289062 301.84375 75.113281 301.84375 78.3125 C 301.84375 81.472656 301.070312 84.332031 299.523438 86.898438 C 297.976562 89.464844 295.714844 91.484375 292.734375 92.957031 C 289.757812 94.433594 286.246094 95.171875 282.183594 95.171875 C 278.125 95.171875 274.609375 94.441406 271.640625 92.964844 Z M 287.3125 83.617188 C 288.566406 82.339844 289.199219 80.644531 289.199219 78.535156 C 289.199219 76.429688 288.574219 74.75 287.3125 73.507812 C 286.0625 72.257812 284.351562 71.632812 282.183594 71.632812 C 279.980469 71.632812 278.257812 72.257812 276.996094 73.507812 C 275.746094 74.757812 275.117188 76.429688 275.117188 78.535156 C 275.117188 80.644531 275.746094 82.339844 276.996094 83.617188 C 278.25 84.898438 279.980469 85.542969 282.183594 85.542969 C 284.351562 85.535156 286.0625 84.898438 287.3125 83.617188 Z M 287.3125 83.617188 " fill-opacity="1" fill-rule="nonzero"/><path fill="#23272a" d="M 332.835938 63.882812 L 332.835938 75.261719 C 331.523438 74.382812 329.828125 73.945312 327.730469 73.945312 C 324.980469 73.945312 322.859375 74.796875 321.382812 76.496094 C 319.902344 78.199219 319.167969 80.847656 319.167969 84.429688 L 319.167969 94.125 L 306.53125 94.125 L 306.53125 63.300781 L 318.910156 63.300781 L 318.910156 73.101562 C 319.59375 69.519531 320.707031 66.878906 322.238281 65.167969 C 323.765625 63.46875 325.738281 62.617188 328.140625 62.617188 C 329.960938 62.617188 331.523438 63.039062 332.835938 63.882812 Z M 332.835938 63.882812 " fill-opacity="1" fill-rule="nonzero"/><g clip-path="url(#8cf4d4a5bf)"><path fill="#23272a" d="M 374.824219 56.1875 L 374.824219 94.125 L 362.183594 94.125 L 362.183594 87.222656 C 361.117188 89.820312 359.496094 91.800781 357.316406 93.152344 C 355.132812 94.5 352.4375 95.179688 349.238281 95.179688 C 346.378906 95.179688 343.890625 94.472656 341.757812 93.046875 C 339.628906 91.625 337.988281 89.675781 336.828125 87.199219 C 335.679688 84.722656 335.097656 81.925781 335.097656 78.792969 C 335.0625 75.5625 335.671875 72.664062 336.933594 70.097656 C 338.1875 67.53125 339.960938 65.53125 342.246094 64.09375 C 344.53125 62.65625 347.136719 61.933594 350.0625 61.933594 C 356.085938 61.933594 360.121094 64.605469 362.183594 69.941406 L 362.183594 56.1875 Z M 360.300781 83.40625 C 361.589844 82.128906 362.230469 80.464844 362.230469 78.429688 C 362.230469 76.46875 361.601562 74.863281 360.351562 73.636719 C 359.097656 72.410156 357.378906 71.792969 355.222656 71.792969 C 353.09375 71.792969 351.390625 72.417969 350.117188 73.667969 C 348.839844 74.917969 348.207031 76.535156 348.207031 78.535156 C 348.207031 80.539062 348.839844 82.171875 350.117188 83.4375 C 351.390625 84.703125 353.070312 85.332031 355.171875 85.332031 C 357.300781 85.328125 359.007812 84.6875 360.300781 83.40625 Z M 360.300781 83.40625 " fill-opacity="1" fill-rule="nonzero"/></g><path fill="#23272a" d="M 179 66.582031 C 182.480469 66.582031 185.300781 63.996094 185.300781 60.804688 C 185.300781 57.609375 182.480469 55.023438 179 55.023438 C 175.519531 55.023438 172.699219 57.609375 172.699219 60.804688 C 172.699219 63.996094 175.519531 66.582031 179 66.582031 Z M 179 66.582031 " fill-opacity="1" fill-rule="nonzero"/><path fill="#23272a" d="M 172.695312 70.566406 C 176.554688 72.265625 181.347656 72.34375 185.296875 70.566406 L 185.296875 94.289062 L 172.695312 94.289062 Z M 172.695312 70.566406 " fill-opacity="1" fill-rule="nonzero"/></svg>